<?xml version="1.0" encoding="utf-8"?>
<!-- Generator: Adobe Illustrator 17.0.0, SVG Export Plug-In . SVG Version: 6.00 Build 0)  -->
<!DOCTYPE svg PUBLIC "-//W3C//DTD SVG 1.1//EN" "http://www.w3.org/Graphics/SVG/1.1/DTD/svg11.dtd">
<svg version="1.1" xmlns="http://www.w3.org/2000/svg" xmlns:xlink="http://www.w3.org/1999/xlink" x="0px" y="0px" width="400px"
	 height="400px" viewBox="0 0 400 400" enable-background="new 0 0 400 400" xml:space="preserve">
<g id="Layer_1">
	<g>
		<g>
			<path fill="#51656C" d="M265.856,99.815c-58.13,4.348-115.544,16.221-173.539,22.116c-5.448,0.553-3.94,8.916,1.476,8.358
				c57.985-5.984,115.34-17.408,173.32-23.343C271.801,106.467,270.439,99.471,265.856,99.815L265.856,99.815z"/>
		</g>
	</g>
	<g>
		<g>
			<path fill="#51656C" d="M270.073,102.398c-0.329-0.748-0.775-1.331-1.336-1.925c-1.63-1.731-4.316,0.514-2.822,2.393
				c0.337,0.339,0.561,0.733,0.668,1.187C267.367,106.363,271.088,104.722,270.073,102.398L270.073,102.398z"/>
		</g>
	</g>
	<g>
		<g>
			<path fill="#51656C" d="M263.453,103.914c4.593,34.468,11.714,68.941,19.177,102.901c6.373,28.993,12.088,63.391,29.138,88.444
				c2.54,3.735,9.106-0.489,6.672-4.314c-16.795-26.399-22.171-61.97-29.015-92.034c-7.261-31.89-12.519-64.199-19.907-96.064
				C268.622,98.983,262.927,99.97,263.453,103.914L263.453,103.914z"/>
		</g>
	</g>
	<g>
		<g>
			<path fill="#51656C" d="M89.756,127.796c1.716,44.192,6.231,86.584,15.356,129.833c5.032,23.842,11.078,74.646,35.244,88.459
				c4.388,2.508,8.973-3.82,4.558-6.513c-11.692-7.131-16.227-27.881-19.997-39.904c-5.615-17.917-9.615-36.373-13.409-54.744
				c-8.069-39.066-11.198-77.663-13.788-117.451C97.428,122.964,89.581,123.283,89.756,127.796L89.756,127.796z"/>
		</g>
	</g>
	<g>
		<g>
			<path fill="#51656C" d="M79.244,131.361c2.95,72.596,13.816,143.517,30.703,214.209c1.18,4.947,8.874,3.67,7.824-1.376
				c-14.755-71.006-25.691-140.84-30.563-213.152C86.904,126.534,79.06,126.848,79.244,131.361L79.244,131.361z"/>
		</g>
	</g>
	<g>
		<g>
			<path fill="#51656C" d="M313.068,288.976c-64.157,26.589-130.547,44.611-199.349,53.727c-5.538,0.733-4.01,9.23,1.501,8.517
				c69.535-9.026,136.798-27.397,201.353-54.864C321.429,294.291,317.92,286.966,313.068,288.976L313.068,288.976z"/>
		</g>
	</g>
	<g>
		<g>
			<path fill="#51656C" d="M244.922,123.626c10.929-2.129,9.201-21.413,7.268-29.307c-1.586-6.468-9.35-10.866-15.656-7.849
				c-8.261,3.949-8.046,13.499-6.041,21.223c1.419,5.461,10.108,3.975,8.677-1.526c-0.713-2.733-2.935-10.537,1.072-11.699
				c3.426-0.997,3.668,3.057,3.93,5.231c0.421,3.461,1.566,14.735-1.656,16.391C238.58,118.121,240.397,124.509,244.922,123.626
				L244.922,123.626z"/>
		</g>
	</g>
	<g>
		<g>
			<path fill="#51656C" d="M123.416,142.755c11.696-2.752,8.61-23.457,6.139-31.8c-2.314-7.814-9.642-11.021-16.997-7.734
				c-8.42,3.765-8.921,14.426-6.638,22.051c1.611,5.375,10.308,3.905,8.677-1.526c-1.227-4.084-2.252-9.151,1.314-12.292
				c4.219-3.721,5.485,2.792,5.942,5.45c0.563,3.292,2.984,16.277-0.843,18.317C117.183,137.26,118.858,143.828,123.416,142.755
				L123.416,142.755z"/>
		</g>
	</g>
	<g>
		<g>
			<path fill="#51656C" d="M156.598,137.54c11.574-2.713,8.789-23.009,6.338-31.332c-2.296-7.794-9.642-10.816-16.92-7.565
				c-8.328,3.725-9.009,14.172-6.757,21.777c1.596,5.386,10.29,3.909,8.677-1.526c-1.207-4.064-2.12-8.931,1.431-12.023
				c4.194-3.655,5.386,2.518,5.832,5.196c0.551,3.311,2.81,15.893-1.007,17.937C150.374,132.054,152.035,138.607,156.598,137.54
				L156.598,137.54z"/>
		</g>
	</g>
	<g>
		<g>
			<path fill="#51656C" d="M187.593,131.77c11.297-2.618,9.176-22.001,6.802-30.279c-2.396-8.348-11.075-10.801-18.144-6.303
				c-6.874,4.374-7.772,12.98-5.645,20.261c1.578,5.39,10.273,3.92,8.677-1.526c-1.177-4.015-1.945-9.076,2.132-11.674
				c4.039-2.573,4.742,2.209,5.156,4.907c0.516,3.356,2.401,15.02-1.384,17.079C181.389,126.305,183.012,132.832,187.593,131.77
				L187.593,131.77z"/>
		</g>
	</g>
	<g>
		<g>
			<path fill="#51656C" d="M218.687,127.427c11.325-2.643,9.143-22.101,6.757-30.394c-2.404-8.347-11.073-10.856-18.162-6.343
				c-6.892,4.393-7.749,13.045-5.615,20.331c1.581,5.391,10.275,3.915,8.677-1.526c-1.18-4.015-1.985-9.131,2.099-11.739
				c4.051-2.583,4.767,2.259,5.186,4.962c0.519,3.356,2.443,15.11-1.349,17.174C212.489,121.961,214.107,128.494,218.687,127.427
				L218.687,127.427z"/>
		</g>
	</g>
	<g>
		<g>
			<path fill="#51656C" d="M91.295,122.405c-3.778,2.149-8.074,3.865-10.662,7.505c-1.648,2.324,0.461,5.376,3.169,4.972
				c4.062-0.603,7.532-3.042,11.013-5.066C99.336,127.182,95.912,119.772,91.295,122.405L91.295,122.405z"/>
		</g>
	</g>
	<g>
		<g>
			<path fill="#51656C" d="M152.349,182.305c16.07,0.653,32.835-4.837,48.837-6.857c17.144-2.164,34.004-4.363,50.897-8.128
				c4.378-0.972,3.231-7.739-1.212-6.882c-32.84,6.338-65.914,10.492-98.717,17.03C149.519,177.992,149.522,182.185,152.349,182.305
				L152.349,182.305z"/>
		</g>
	</g>
	<g>
		<g>
			<path fill="#51656C" d="M159.67,216.888c32.284-1.645,64.693-9.958,96.568-15.17c4.62-0.753,3.331-7.64-1.252-7.101
				c-31.905,3.755-65.086,9.32-96.129,17.653C155.887,213.068,156.68,217.043,159.67,216.888L159.67,216.888z"/>
		</g>
	</g>
	<g>
		<g>
			<path fill="#51656C" d="M168.257,256.163c30.857-4.368,63.491-8.502,93.316-17.788c4.488-1.401,3.473-8.597-1.302-7.39
				c-30.643,7.779-62.301,11.863-93.271,18.046C162.412,249.945,163.637,256.821,168.257,256.163L168.257,256.163z"/>
		</g>
	</g>
	<g>
		<g>
			<path fill="#51656C" d="M178.454,296.59c32.578-4.922,64.129-14.86,95.974-23.058c5.131-1.316,3.787-9.425-1.442-8.168
				c-32.039,7.694-63.396,17.768-95.884,23.557C172.152,289.803,173.498,297.338,178.454,296.59L178.454,296.59z"/>
		</g>
	</g>
	<g display="none">
		<g display="inline">
			<path fill="#51656C" d="M122.369,183.083c2.219,5.879,7.353,9.136,12.889,11.534c2.453,1.062,5.747-0.932,5.807-3.651
				c0.182-8.028,0.329-16.66,2.872-24.35c1.341-4.059-4.483-7.51-6.842-3.586c-4.782,7.954-4.618,18.122-4.643,27.118
				c1.935-1.217,3.872-2.434,5.807-3.65c-3.81-1.561-6.515-3.341-8.625-6.867C126.982,175.194,120.524,178.191,122.369,183.083
				L122.369,183.083z"/>
		</g>
	</g>
	<g display="none">
		<g display="inline">
			<path fill="#51656C" d="M125.035,220.688c2.226,5.884,7.353,9.13,12.893,11.529c2.451,1.062,5.747-0.928,5.807-3.645
				c0.177-8.158,0.239-17.034,2.838-24.849c1.349-4.059-4.491-7.51-6.842-3.586c-4.842,8.074-4.588,18.496-4.607,27.616
				c1.935-1.216,3.872-2.428,5.807-3.645c-3.815-1.566-6.518-3.341-8.629-6.872C129.647,212.799,123.185,215.796,125.035,220.688
				L125.035,220.688z"/>
		</g>
	</g>
	<g display="none">
		<g display="inline">
			<path fill="#51656C" d="M135.357,260.487c2.269,5.889,7.323,9.101,12.891,11.524c2.438,1.058,5.752-0.932,5.8-3.645
				c0.152-8.413-0.344-17.847,2.304-25.936c1.324-4.049-4.52-7.545-6.842-3.586c-4.93,8.408-4.074,19.304-4.064,28.703
				c1.932-1.212,3.867-2.429,5.799-3.645c-3.8-1.566-6.53-3.331-8.622-6.867C139.992,252.588,133.477,255.61,135.357,260.487
				L135.357,260.487z"/>
		</g>
	</g>
	<g display="none">
		<g display="inline">
			<path fill="#51656C" d="M146.22,302.061c2.219,5.885,7.356,9.136,12.891,11.534c2.453,1.062,5.747-0.932,5.809-3.65
				c0.182-7.939,0.437-16.402,2.96-24.001c1.349-4.064-4.473-7.495-6.841-3.586c-4.753,7.849-4.708,17.867-4.735,26.769
				c1.937-1.217,3.875-2.434,5.81-3.65c-3.81-1.561-6.515-3.341-8.627-6.867C150.831,294.172,144.376,297.169,146.22,302.061
				L146.22,302.061z"/>
		</g>
	</g>
</g>
<g id="Layer_2">
	<g id="Layer_3">
		<path fill-rule="evenodd" clip-rule="evenodd" fill="#16A6B6" d="M132.783,170.591l2.821,13.702
			c0.816,3.966,0.8,7.935-3.182,10.177c-1.521,0.856-3.407,1.216-5.089,0.908c-4.663-0.852-5.581-6.735-2.664-9.972
			c1.572-1.745,4.049-2.814,6.617-2.816l-4.895-23.78l1.329-0.274c3.526,7.921,13.563,10.529,15.254,17.641
			c0.55,2.315,0.124,5.224-1.703,7.612C142.153,175.801,137.238,175.513,132.783,170.591L132.783,170.591z"/>
		<path fill-rule="evenodd" clip-rule="evenodd" fill="#16A6B6" d="M140.416,210.592l2.821,13.702
			c0.816,3.966,0.8,7.935-3.182,10.177c-1.521,0.856-3.407,1.216-5.089,0.908c-4.663-0.852-5.581-6.735-2.664-9.972
			c1.572-1.745,4.049-2.814,6.617-2.816l-4.895-23.78l1.329-0.274c3.526,7.921,13.563,10.529,15.254,17.641
			c0.55,2.315,0.124,5.224-1.703,7.612C149.785,215.802,144.87,215.515,140.416,210.592L140.416,210.592z"/>
		<path fill-rule="evenodd" clip-rule="evenodd" fill="#16A6B6" d="M149.678,251.499l2.821,13.702
			c0.816,3.966,0.8,7.935-3.182,10.177c-1.521,0.856-3.407,1.216-5.089,0.908c-4.663-0.852-5.581-6.735-2.664-9.972
			c1.572-1.745,4.049-2.814,6.617-2.816l-4.895-23.78l1.329-0.274c3.526,7.921,13.563,10.529,15.254,17.641
			c0.55,2.315,0.124,5.224-1.703,7.612C159.047,256.709,154.132,256.421,149.678,251.499L149.678,251.499z"/>
		<path fill-rule="evenodd" clip-rule="evenodd" fill="#16A6B6" d="M159.106,291.405l2.821,13.702
			c0.816,3.966,0.8,7.935-3.182,10.177c-1.521,0.856-3.407,1.216-5.089,0.908c-4.663-0.852-5.581-6.735-2.664-9.972
			c1.572-1.745,4.049-2.814,6.617-2.816l-4.895-23.78l1.329-0.274c3.526,7.921,13.563,10.529,15.254,17.641
			c0.55,2.315,0.124,5.224-1.703,7.612C168.476,296.615,163.561,296.328,159.106,291.405L159.106,291.405z"/>
	</g>
</g>
</svg>
