<?xml version="1.0" encoding="utf-8"?>
<!-- Generator: Adobe Illustrator 17.0.0, SVG Export Plug-In . SVG Version: 6.00 Build 0)  -->
<!DOCTYPE svg PUBLIC "-//W3C//DTD SVG 1.1//EN" "http://www.w3.org/Graphics/SVG/1.1/DTD/svg11.dtd">
<svg version="1.1" xmlns="http://www.w3.org/2000/svg" xmlns:xlink="http://www.w3.org/1999/xlink" x="0px" y="0px" width="100px"
	 height="100px" viewBox="0 0 100 100" enable-background="new 0 0 100 100" xml:space="preserve">
<g id="border" display="none">
	<g id="Layer_6" display="inline">
		<g id="Box_1">
			<g>
				<path fill="#51656C" d="M0.23,6.424c2.496,29.92-0.642,59.929,1.799,89.856c0.031,0.377,0.356,0.722,0.758,0.704
					c13.419-0.624,26.855-0.795,40.244-1.937c17.555-1.496,35.036-5.024,52.631-2.146c0.626,0.103,1.348-0.322,1.391-1.006
					c1.027-15.828,2.914-31.58,2.945-47.459c0.028-13.702-0.06-29.232-5.865-41.861c-0.213-0.462-0.53-0.61-1.033-0.568
					C62.523,4.565,31.764,3.114,1.182,5.248C0.022,5.329-0.585,7.335,0.79,7.307c25.349-0.539,50.732-1.069,76.061-2.184
					c3.812-0.167,7.626-0.358,11.433-0.64c7.042-0.522,7.752,8.818,8.201,14.061c1.287,14.998,1.786,30.059,0.826,45.097
					c-0.468,7.33-1.185,14.647-1.781,21.967c-0.61,7.476-11.764,3.916-17.473,4.041c-16.599,0.363-33.135,3.543-49.742,4.335
					c-4.211,0.202-24.34,3.622-24.885-2.85c-0.762-9.06-0.799-18.178-0.788-27.262c0.023-19.288,0.789-38.49-0.9-57.74
					C1.651,5.097,0.155,5.524,0.23,6.424L0.23,6.424z"/>
			</g>
			<g>
				<path fill="#51656C" d="M4.256,67.91c0.27-20.029,3.011-39.919,3.248-59.956c0.025-2.146-2.979-1.69-2.997,0.221
					C4.322,28.117,2.101,47.966,2.406,67.922C2.428,69.292,4.238,69.208,4.256,67.91L4.256,67.91z"/>
			</g>
			<g>
				<path fill="#51656C" d="M0.75,61.851C1.526,72.057,2.616,82.197,3.172,92.42c0.094,1.717,2.215,1.419,2.264-0.166
					c0.315-10.267-1.629-20.568-2.928-30.723C2.345,60.252,0.663,60.713,0.75,61.851L0.75,61.851z"/>
			</g>
			<g>
				<path fill="#51656C" d="M4.168,93.009c7.036,0.791,13.733,2.708,20.845,2.737c6.923,0.027,14.099-1.015,21.014-1.513
					c17.074-1.226,33.732-3.151,50.905-2.922c1.466,0.02,2.135-2.721,0.542-2.739c-13.154-0.15-26.167,0.505-39.223,2.056
					c-8.273,0.982-16.527,1.74-24.837,2.364C23.21,93.761,14.45,92.065,4.44,91.665C3.694,91.635,3.344,92.917,4.168,93.009
					L4.168,93.009z"/>
			</g>
			<g>
				<path fill="#51656C" d="M5.646,10.658c27.427-6.174,57.358,0.479,84.723-6.275c1.441-0.356,1.198-2.594-0.436-2.215
					C62.494,8.546,32.834,2.507,5.395,8.822C4.304,9.074,4.391,10.94,5.646,10.658L5.646,10.658z"/>
			</g>
			<g>
				<path fill="#51656C" d="M37.904,96.184c19.236,1.313,38.439-1.388,57.631-1.889c1.324-0.034,1.961-2.46,0.409-2.409
					c-19.303,0.628-38.526,2.68-57.879,2.939C37.291,94.835,37.026,96.125,37.904,96.184L37.904,96.184z"/>
			</g>
			<g>
				<path fill="#51656C" d="M94.322,90.03c0.637-28.548,3.225-57.167,1.421-85.718c-0.072-1.155-1.702-0.53-1.643,0.446
					c1.72,28.443-0.484,56.822-0.874,85.267C93.215,90.857,94.304,90.802,94.322,90.03L94.322,90.03z"/>
			</g>
			<g>
				<path fill="#51656C" d="M65.651,7.226c9.679,1.845,19.66,1.843,29.446,0.83c0.945-0.097,1.461-1.719,0.277-1.641
					C85.532,7.058,75.882,7.532,66.07,6.1C65.422,6.005,64.887,7.082,65.651,7.226L65.651,7.226z"/>
			</g>
		</g>
	</g>
</g>
<g id="no" display="none">
	<g id="Layer_4" display="inline">
		<g>
			<g>
				<path fill="#EE6557" d="M27.218,13.376c-5.079,3.687-8.219,8.774-12.73,13.031c-0.344,0.324-0.53,1.026-0.046,1.333
					c3.962,2.516,7.705,5.251,11.287,8.285c1.928,1.633,14.194,11.814,11.924,15.143c-6.792,9.961-16.17,17.807-23.642,27.226
					c-0.347,0.437-0.434,1.205,0.069,1.573c4.533,3.313,9.525,6.042,13.711,9.814c0.349,0.314,1.035,0.189,1.337-0.128
					c9.174-9.652,16.355-21.38,22.356-33.21c-0.657,0.127-1.314,0.253-1.97,0.379c6.359,9.517,12.814,18.921,20.227,27.658
					c0.463,0.545,1.047,0.508,1.617,0.141c4.594-2.961,9.444-5.5,14.038-8.46c0.484-0.311,0.839-1.28,0.412-1.77
					c-7.733-8.874-15.973-17.29-23.717-26.156c-4.074-4.665,5.512-10.776,9.014-14.175c3.827-3.712,7.579-7.488,11.235-11.368
					c0.411-0.436,0.515-1.501-0.086-1.847c-4.782-2.746-9.581-5.507-14.118-8.651c-0.569-0.394-1.438-0.194-1.811,0.396
					c-5.317,8.434-11.415,16.439-17.439,24.374c0.607-0.133,1.214-0.266,1.821-0.398c-7.862-7.734-15.136-16.034-22.995-23.771
					c-1.23-1.21-3.207,0.842-2.038,1.989c7.965,7.822,15.336,16.218,23.299,24.043c0.529,0.52,1.456,0.083,1.821-0.398
					c6.021-7.938,12.115-15.946,17.428-24.382c-0.603,0.132-1.208,0.264-1.811,0.396c4.537,3.141,9.339,5.9,14.123,8.645
					c-0.029-0.615-0.058-1.231-0.086-1.847c-7.592,8.065-15.78,15.532-23.371,23.599c-0.349,0.37-0.501,1.183-0.149,1.602
					c4.677,5.578,9.612,10.919,14.579,16.238c3.128,3.35,6.262,6.695,9.343,10.088c0.55,0.998,1.332,1.699,2.345,2.103
					c-1.634,1.062-3.341,2.029-5.02,3.02c-1.981,1.171-3.975,2.32-5.929,3.535c-2.295,1.427-5.39-4.452-6.862-6.334
					C60.414,68.74,55.946,62,51.456,55.305c-0.535-0.797-1.616-0.319-1.97,0.379c-3.345,6.592-7.134,12.907-11.258,19.041
					c-2.233,3.322-4.648,6.515-7.164,9.627c-2.958,3.658-2.284,2.966-4.876,1.017c-1.337-1.006-2.737-1.934-4.119-2.876
					c-1.96-1.335-3.95-2.622-5.902-3.967c0.336,0.232,7.009-7.628,7.73-8.397c5.966-6.366,11.801-12.601,16.696-19.859
					c0.245-0.362,0.394-0.901,0.092-1.285c-5.021-6.372-10.587-12.088-16.972-17.094c-2.46-1.928-8.502-3.826-5.598-7.026
					c3.259-3.594,5.817-7.389,9.773-10.344C28.513,14.053,27.914,12.87,27.218,13.376L27.218,13.376z"/>
			</g>
			<g>
				<g>
					<path fill="#EE6557" d="M18.499,27.817c3.013-3.491,5.605-7.289,8.851-10.58c0.396-0.401-0.11-0.985-0.547-0.595
						c-3.458,3.076-5.861,7.139-8.786,10.688C17.722,27.688,18.173,28.194,18.499,27.817L18.499,27.817z"/>
				</g>
				<g>
					<path fill="#EE6557" d="M24.457,24.958c2-2.485,4.117-4.844,6.479-6.992c0.348-0.317-0.09-0.826-0.458-0.499
						c-2.386,2.125-4.493,4.526-6.489,7.015C23.705,24.837,24.154,25.334,24.457,24.958L24.457,24.958z"/>
				</g>
				<g>
					<path fill="#EE6557" d="M23.755,30.072c2.003-3.317,4.544-6.168,7.48-8.681c0.425-0.364-0.089-0.981-0.536-0.603
						c-3.013,2.543-5.56,5.558-7.561,8.955C22.879,30.179,23.496,30.501,23.755,30.072L23.755,30.072z"/>
				</g>
				<g>
					<path fill="#EE6557" d="M24.457,32.992c2.915-3.388,5.885-6.688,9.11-9.785c0.406-0.39-0.09-1.004-0.531-0.604
						c-3.319,3.016-6.183,6.488-9.047,9.926C23.7,32.877,24.142,33.358,24.457,32.992L24.457,32.992z"/>
				</g>
				<g>
					<path fill="#EE6557" d="M26.613,35.257c2.241-4.012,5.061-7.553,8.698-10.376c0.457-0.354,0.17-1.239-0.39-0.843
						c-3.877,2.74-6.733,6.744-8.941,10.893C25.733,35.395,26.36,35.712,26.613,35.257L26.613,35.257z"/>
				</g>
				<g>
					<path fill="#EE6557" d="M28.947,36.295c2.343-3.799,4.884-7.381,8.43-10.153c0.42-0.328,0.145-1.132-0.372-0.769
						c-3.811,2.683-6.355,6.645-8.689,10.598C28.049,36.426,28.677,36.734,28.947,36.295L28.947,36.295z"/>
				</g>
				<g>
					<path fill="#EE6557" d="M31.542,38.37c2.186-3.674,4.714-6.843,8.184-9.373c0.449-0.328,0.145-1.102-0.398-0.771
						c-3.75,2.288-6.305,6.062-8.419,9.818C30.648,38.504,31.278,38.815,31.542,38.37L31.542,38.37z"/>
				</g>
				<g>
					<path fill="#EE6557" d="M33.098,40.969c2.645-4.574,5.969-8.477,9.83-12.06c0.359-0.334-0.067-1.028-0.485-0.676
						c-4.103,3.444-7.375,7.733-9.972,12.4C32.212,41.098,32.833,41.425,33.098,40.969L33.098,40.969z"/>
				</g>
				<g>
					<path fill="#EE6557" d="M35.615,42.866c2.753-3.96,5.833-7.439,9.567-10.5c0.425-0.348,0.114-1.133-0.416-0.767
						c-4.023,2.78-7.044,6.806-9.691,10.857C34.839,42.819,35.356,43.239,35.615,42.866L35.615,42.866z"/>
				</g>
				<g>
					<path fill="#EE6557" d="M38.986,45.198c2.816-3.862,5.541-7.499,9.306-10.501c0.43-0.344,0.128-1.085-0.413-0.759
						c-4.081,2.464-6.722,6.948-9.369,10.767C38.246,45.086,38.678,45.622,38.986,45.198L38.986,45.198z"/>
				</g>
				<g>
					<path fill="#EE6557" d="M40.299,47.03c3.493-4.437,7.214-8.485,11.376-12.304c0.419-0.384,0.12-1.248-0.437-0.819
						c-4.507,3.459-8.063,8.082-11.447,12.597C39.491,46.905,39.953,47.468,40.299,47.03L40.299,47.03z"/>
				</g>
				<g>
					<path fill="#EE6557" d="M40.978,49.651c4.235-3.972,7.74-8.647,11.295-13.218c0.359-0.462-0.174-1.09-0.594-0.599
						c-3.76,4.393-6.937,9.235-11.08,13.301C40.327,49.4,40.666,49.943,40.978,49.651L40.978,49.651z"/>
				</g>
				<g>
					<path fill="#EE6557" d="M18.506,77.215c3.916,3.542,7.34,8.23,11.918,10.941c0.499,0.294,0.988-0.449,0.568-0.818
						c-4.043-3.547-7.893-7.308-11.944-10.845C18.642,76.139,18.134,76.879,18.506,77.215L18.506,77.215z"/>
				</g>
				<g>
					<path fill="#EE6557" d="M21.117,74.868c3.279,3.415,6.03,7.289,9.294,10.711c0.378,0.396,0.994-0.392,0.671-0.763
						c-3.116-3.577-6.088-7.304-9.461-10.645C21.257,73.81,20.791,74.529,21.117,74.868L21.117,74.868z"/>
				</g>
				<g>
					<path fill="#EE6557" d="M23.439,72.531c3.495,3.516,5.613,8.181,9.288,11.522c0.488,0.443,1.039-0.492,0.631-0.912
						c-3.438-3.524-5.77-7.95-9.387-11.301C23.591,71.489,23.106,72.195,23.439,72.531L23.439,72.531z"/>
				</g>
				<g>
					<path fill="#EE6557" d="M25.369,69.125c2.75,3.625,4.813,7.891,8.15,11.036c0.417,0.392,1.015-0.438,0.684-0.816
						c-3.012-3.429-5.296-7.347-8.088-10.94C25.773,67.966,25.063,68.722,25.369,69.125L25.369,69.125z"/>
				</g>
				<g>
					<path fill="#EE6557" d="M27.016,66.465c3.141,4.176,4.295,9.97,8.33,13.437c0.43,0.37,0.986-0.447,0.661-0.82
						c-3.488-3.999-4.904-9.25-8.407-13.183C27.308,65.571,26.781,66.151,27.016,66.465L27.016,66.465z"/>
				</g>
				<g>
					<path fill="#EE6557" d="M29.451,65.453c3.263,3.404,4.188,8.143,7.102,11.761c0.416,0.516,1.078-0.251,0.756-0.72
						c-2.552-3.706-3.806-8.721-7.421-11.583C29.557,64.649,29.18,65.17,29.451,65.453L29.451,65.453z"/>
				</g>
				<g>
					<path fill="#EE6557" d="M30.917,63.244c1.932,4.663,4.018,9.392,6.695,13.679c0.334,0.532,0.963-0.204,0.72-0.659
						c-2.364-4.416-4.493-8.944-6.829-13.371C31.314,62.538,30.784,62.923,30.917,63.244L30.917,63.244z"/>
				</g>
				<g>
					<path fill="#EE6557" d="M32.488,59.719c2.598,3.765,3.731,8.297,6.364,12.031c0.393,0.557,1.157-0.188,0.83-0.686
						c-2.487-3.778-3.629-8.5-6.658-11.901C32.742,58.848,32.28,59.419,32.488,59.719L32.488,59.719z"/>
				</g>
				<g>
					<path fill="#EE6557" d="M35.055,53.245c2.682,5.645,4.375,11.729,7.488,17.17c0.296,0.517,0.947-0.16,0.712-0.608
						c-2.914-5.519-4.799-11.481-7.558-17.069C35.466,52.273,34.864,52.84,35.055,53.245L35.055,53.245z"/>
				</g>
				<g>
					<path fill="#EE6557" d="M37.343,50.68c2.466,5.176,4.147,11.066,7.751,15.605c0.404,0.509,1.094-0.156,0.795-0.652
						c-3.013-5.008-5.203-10.303-7.811-15.517C37.815,49.589,37.123,50.22,37.343,50.68L37.343,50.68z"/>
				</g>
				<g>
					<path fill="#EE6557" d="M41.679,47.985c1.452,4.584,2.632,9.686,5.488,13.645c0.403,0.558,1.048-0.174,0.801-0.678
						c-2.146-4.355-3.831-8.746-5.41-13.331C42.346,47.007,41.507,47.444,41.679,47.985L41.679,47.985z"/>
				</g>
				<g>
					<path fill="#EE6557" d="M43.148,44.888c1.99,4.711,3.205,9.868,6.071,14.159c0.386,0.578,1.17-0.188,0.845-0.699
						c-2.755-4.338-3.943-9.36-6.377-13.853C43.479,44.111,43.006,44.553,43.148,44.888L43.148,44.888z"/>
				</g>
				<g>
					<path fill="#EE6557" d="M48.184,38.382c1.671,6.48,4.015,13.277,7.792,18.85c0.39,0.575,1.086-0.193,0.816-0.7
						c-3.174-5.978-5.919-11.961-7.769-18.5C48.854,37.428,48.049,37.861,48.184,38.382L48.184,38.382z"/>
				</g>
				<g>
					<path fill="#EE6557" d="M52.707,35.978c2.348,3.03,3.641,7.004,6.416,9.681c0.506,0.488,1.098-0.425,0.751-0.897
						c-2.276-3.097-4.09-6.557-6.552-9.512C52.965,34.821,52.399,35.58,52.707,35.978L52.707,35.978z"/>
				</g>
				<g>
					<path fill="#EE6557" d="M54.552,35.563c1.681,2.606,2.74,5.685,4.86,7.985c0.428,0.464,1.035-0.392,0.691-0.826
						c-1.897-2.39-3.225-5.105-4.997-7.576C54.854,34.793,54.341,35.237,54.552,35.563L54.552,35.563z"/>
				</g>
				<g>
					<path fill="#EE6557" d="M55.749,29.135c1.731,4.096,2.175,9.291,5.723,12.353c0.497,0.429,1.108-0.41,0.72-0.856
						c-3.065-3.509-3.773-7.921-5.689-12.027C56.252,28.07,55.55,28.665,55.749,29.135L55.749,29.135z"/>
				</g>
				<g>
					<path fill="#EE6557" d="M58.923,26.753c1.79,3.867,2.214,8.803,5.398,11.886c0.481,0.466,1.104-0.408,0.727-0.863
						c-2.827-3.409-3.225-7.777-5.495-11.458C59.296,25.901,58.745,26.368,58.923,26.753L58.923,26.753z"/>
				</g>
				<g>
					<path fill="#EE6557" d="M62.574,22.743c0.309,4.465,2.059,9.332,4.268,13.196c0.347,0.606,1.12-0.118,0.871-0.65
						c-1.946-4.15-3.492-8.271-4.548-12.743C63.065,22.115,62.55,22.388,62.574,22.743L62.574,22.743z"/>
				</g>
				<g>
					<path fill="#EE6557" d="M63.989,19.681c1.02,4.537,1.325,9.684,4.213,13.522c0.376,0.498,1.099-0.319,0.83-0.779
						c-2.382-4.058-3.025-8.55-4.168-13.039C64.707,18.773,63.868,19.144,63.989,19.681L63.989,19.681z"/>
				</g>
				<g>
					<path fill="#EE6557" d="M67.393,18.495c1.622,4.21,1.696,8.958,3.581,13.046c0.28,0.606,1.085-0.033,0.955-0.545
						c-1.096-4.329-1.936-8.912-3.728-13.018C67.955,17.415,67.205,18.003,67.393,18.495L67.393,18.495z"/>
				</g>
				<g>
					<path fill="#EE6557" d="M71.2,18.478c2.388,3.557,1.655,7.987,3.4,11.772c0.277,0.6,1.136-0.037,0.966-0.557
						c-1.166-3.562-0.824-9.108-3.911-11.698C71.345,17.735,71.001,18.181,71.2,18.478L71.2,18.478z"/>
				</g>
				<g>
					<path fill="#EE6557" d="M74.884,20.729c0.475,2.156,0.639,4.382,1.23,6.51c0.198,0.71,1.126,0.245,1.002-0.37
						c-0.433-2.153-0.811-4.331-1.363-6.458C75.594,19.793,74.767,20.197,74.884,20.729L74.884,20.729z"/>
				</g>
				<g>
					<path fill="#EE6557" d="M53.132,37.338c1.969,5.437,3.241,11.037,4.638,16.637c0.162,0.65,0.975,0.122,0.863-0.409
						c-1.177-5.668-2.682-11.252-4.739-16.668C53.713,36.419,52.983,36.924,53.132,37.338L53.132,37.338z"/>
				</g>
				<g>
					<path fill="#EE6557" d="M53.03,59.965c1.828-3.095,3.548-6.242,5.498-9.266c0.335-0.518-0.266-1.181-0.652-0.603
						c-2.013,3.007-3.616,6.264-5.396,9.41C52.237,59.936,52.746,60.445,53.03,59.965L53.03,59.965z"/>
				</g>
				<g>
					<path fill="#EE6557" d="M56.653,62.827c2.432-3.755,4.434-7.739,7.049-11.38c0.346-0.481-0.218-1.046-0.625-0.544
						c-2.823,3.483-4.63,7.645-6.96,11.448C55.859,62.77,56.355,63.29,56.653,62.827L56.653,62.827z"/>
				</g>
				<g>
					<path fill="#EE6557" d="M58.186,64.356c1.622-2.924,3.2-5.857,5.241-8.519c0.341-0.446-0.217-0.983-0.597-0.505
						c-2.106,2.656-3.599,5.709-5.181,8.69C57.456,64.387,57.974,64.737,58.186,64.356L58.186,64.356z"/>
				</g>
				<g>
					<path fill="#EE6557" d="M59.458,69.777c2.322-4.317,4.316-8.75,7.349-12.636c0.293-0.375-0.167-1.032-0.534-0.61
						c-3.277,3.778-5.068,8.543-7.298,12.956C58.809,69.815,59.273,70.119,59.458,69.777L59.458,69.777z"/>
				</g>
				<g>
					<path fill="#EE6557" d="M61.231,72.696c3.178-3.462,4.715-8.029,7.85-11.545c0.366-0.411,0.004-1.243-0.489-0.756
						c-3.39,3.352-4.672,8.173-7.714,11.799C60.635,72.483,60.915,73.039,61.231,72.696L61.231,72.696z"/>
				</g>
				<g>
					<path fill="#EE6557" d="M63.915,74.717c2.578-3.914,4.388-8.245,7.038-12.124c0.323-0.473-0.204-1.009-0.604-0.527
						c-3.001,3.62-4.475,8.304-6.967,12.258C63.129,74.724,63.63,75.148,63.915,74.717L63.915,74.717z"/>
				</g>
				<g>
					<path fill="#EE6557" d="M65.548,76.588c2.539-3.839,4.478-7.932,7.282-11.606c0.344-0.451-0.144-1.223-0.632-0.746
						c-3.322,3.241-4.885,7.98-7.338,11.844C64.533,76.597,65.181,77.143,65.548,76.588L65.548,76.588z"/>
				</g>
				<g>
					<path fill="#EE6557" d="M67.286,78.866c0.731-1.431,1.39-2.897,2.142-4.316c1.078-2.03,2.394-3.427,4.221-4.764
						c0.322-0.235,0.432-1.143-0.178-0.954c-3.758,1.165-5.239,6.499-6.718,9.64C66.557,78.888,67.045,79.335,67.286,78.866
						L67.286,78.866z"/>
				</g>
				<g>
					<path fill="#EE6557" d="M69.41,82.007c2.371-4.639,4.59-9.007,8.282-12.76c0.474-0.481,0.025-1.376-0.597-0.87
						c-4.073,3.309-6.105,8.581-8.316,13.177C68.543,82.046,69.128,82.561,69.41,82.007L69.41,82.007z"/>
				</g>
				<g>
					<path fill="#EE6557" d="M74.391,78.145c1.845-3.114,3.627-6.067,5.889-8.903c0.391-0.491,0.043-1.399-0.584-0.86
						c-2.77,2.386-4.289,6.13-6.041,9.255C73.345,78.194,74.033,78.75,74.391,78.145L74.391,78.145z"/>
				</g>
				<g>
					<path fill="#EE6557" d="M80.318,76.031c0.788-1.791,1.404-3.643,1.922-5.529c0.188-0.688-0.669-0.954-0.874-0.264
						c-0.534,1.801-1.011,3.616-1.707,5.364C79.456,76.112,80.06,76.615,80.318,76.031L80.318,76.031z"/>
				</g>
				<g>
					<path fill="#EE6557" d="M46.105,48.498c3.387-3.871,6.64-7.832,10.251-11.501c0.463-0.472-0.109-1.214-0.625-0.729
						c-3.765,3.542-6.844,7.744-10.133,11.712C45.281,48.361,45.754,48.899,46.105,48.498L46.105,48.498z"/>
				</g>
				<g>
					<path fill="#EE6557" d="M46.91,52.423c3.209-4.193,6.468-8.245,10.28-11.911c0.459-0.441-0.093-1.115-0.597-0.679
						c-4.027,3.481-7.113,7.896-10.158,12.222C46.221,52.358,46.678,52.726,46.91,52.423L46.91,52.423z"/>
				</g>
				<g>
					<path fill="#EE6557" d="M49.202,54.142c2.733-3.065,5.386-6.196,8.27-9.122c0.432-0.438-0.122-1.075-0.597-0.637
						c-3.035,2.8-5.521,6.103-8.147,9.275C48.433,54.015,48.87,54.515,49.202,54.142L49.202,54.142z"/>
				</g>
				<g>
					<path fill="#EE6557" d="M20.044,21.451c2.156,3.716,3.317,7.919,5.632,11.543c0.332,0.521,0.987-0.192,0.717-0.649
						c-2.159-3.669-3.492-7.743-5.693-11.386C20.43,20.51,19.81,21.047,20.044,21.451L20.044,21.451z"/>
				</g>
				<g>
					<path fill="#EE6557" d="M23.976,19.774c2.713,6.296,3.243,13.471,7.244,19.188c0.357,0.51,0.936-0.258,0.67-0.696
						c-3.599-5.909-4.413-12.777-7.192-19.026C24.466,18.722,23.781,19.321,23.976,19.774L23.976,19.774z"/>
				</g>
				<g>
					<path fill="#EE6557" d="M29.761,21.231c1.713,7.484,2.558,15.378,5.648,22.474c0.272,0.626,0.96-0.05,0.785-0.556
						c-2.511-7.278-3.803-14.806-5.674-22.253C30.38,20.339,29.654,20.761,29.761,21.231L29.761,21.231z"/>
				</g>
				<g>
					<path fill="#EE6557" d="M34.241,24.614c1.847,7.463,2.746,15.256,5.237,22.543c0.228,0.665,1.02,0.197,0.858-0.385
						c-2.068-7.423-3.048-15.165-5.523-22.466C34.666,23.873,34.153,24.256,34.241,24.614L34.241,24.614z"/>
				</g>
				<g>
					<path fill="#EE6557" d="M39.668,29.91c2.108,5.647,3.126,11.609,5.125,17.287c0.271,0.772,1.202,0.203,0.986-0.465
						c-1.851-5.729-3.048-11.672-5.35-17.248C40.201,28.929,39.489,29.428,39.668,29.91L39.668,29.91z"/>
				</g>
				<g>
					<path fill="#EE6557" d="M20.196,71.899c1.085,4.364,0.879,9.755,3.691,13.493c0.327,0.435,0.899-0.217,0.679-0.609
						c-2.301-4.114-2.465-8.763-3.734-13.214C20.697,71.095,20.095,71.493,20.196,71.899L20.196,71.899z"/>
				</g>
				<g>
					<path fill="#EE6557" d="M24.415,66.142c0.506,6.24,0.813,13.088,3.378,18.89c0.234,0.527,0.899,0.007,0.769-0.44
						c-1.775-6.151-2.75-12.228-3.454-18.586C25.053,65.504,24.379,65.69,24.415,66.142L24.415,66.142z"/>
				</g>
				<g>
					<path fill="#EE6557" d="M29.009,61.909c0.004,3.99,1.117,7.817,1.454,11.777c0.331,3.894,0.259,7.847,1.816,11.498
						c0.243,0.571,1.001,0.052,0.86-0.445c-0.925-3.286-1.32-6.495-1.554-9.895c-0.305-4.416-1.66-8.669-1.727-13.096
						C29.848,61.116,29.009,61.361,29.009,61.909L29.009,61.909z"/>
				</g>
				<g>
					<path fill="#EE6557" d="M33.128,59.512c0.867,6.007,1.06,12.188,2.72,18.052c0.217,0.766,1.192,0.358,1.039-0.336
						c-1.311-5.924-1.913-11.927-2.94-17.898C33.843,58.736,33.05,58.975,33.128,59.512L33.128,59.512z"/>
				</g>
				<g>
					<path fill="#EE6557" d="M36.272,52.685c-0.115,3.892,0.635,7.694,0.726,11.572c0.083,3.499,0.217,7.023,1.469,10.322
						c0.241,0.634,1.057,0.075,0.935-0.459c-0.773-3.388-1.156-6.665-1.302-10.136c-0.16-3.829-1.025-7.575-1.073-11.417
						C37.021,51.998,36.286,52.201,36.272,52.685L36.272,52.685z"/>
				</g>
				<g>
					<path fill="#EE6557" d="M39.477,67.426c2.689-3.709,5.574-7.265,8.281-10.959c0.389-0.53-0.25-1.16-0.699-0.604
						c-2.88,3.573-5.537,7.345-8.139,11.124C38.632,67.404,39.155,67.871,39.477,67.426L39.477,67.426z"/>
				</g>
				<g>
					<path fill="#EE6557" d="M36.388,63.375c3.684-3.733,7-7.813,10.511-11.708c0.369-0.409-0.137-1.179-0.586-0.73
						c-3.725,3.727-6.763,8.07-10.312,11.957C35.755,63.163,36.096,63.671,36.388,63.375L36.388,63.375z"/>
				</g>
				<g>
					<path fill="#EE6557" d="M37.819,56.467c2.838-2.846,5.265-6.061,7.817-9.156c0.443-0.539-0.198-1.268-0.701-0.693
						c-2.649,3.033-4.948,6.347-7.755,9.245C36.746,56.311,37.356,56.932,37.819,56.467L37.819,56.467z"/>
				</g>
				<g>
					<path fill="#EE6557" d="M54.282,37.568c6.075-6.786,13.42-12.291,19.448-19.11c0.413-0.467-0.076-1.246-0.56-0.733
						c-6.266,6.642-13.384,12.447-19.331,19.389C53.555,37.446,53.968,37.918,54.282,37.568L54.282,37.568z"/>
				</g>
				<g>
					<path fill="#EE6557" d="M57.177,39.455c6.495-5.69,12.768-11.622,19.288-17.286c0.548-0.476-0.05-1.276-0.646-0.794
						c-6.709,5.424-12.771,11.631-18.997,17.589C56.565,39.21,56.878,39.717,57.177,39.455L57.177,39.455z"/>
				</g>
				<g>
					<path fill="#EE6557" d="M61.08,25.288c3.005-3.092,5.567-6.572,9.23-8.948c0.45-0.292,0.119-1.121-0.399-0.815
						c-3.861,2.278-6.327,5.986-9.281,9.241C60.316,25.112,60.726,25.651,61.08,25.288L61.08,25.288z"/>
				</g>
				<g>
					<path fill="#EE6557" d="M66.833,77.011c4.655,0.445,9.5,0.06,14.142-0.411c0.548-0.056,0.692-1.195,0.092-1.237
						c-4.701-0.336-9.394,0.911-14.12,0.714C66.518,76.059,66.384,76.968,66.833,77.011L66.833,77.011z"/>
				</g>
				<g>
					<path fill="#EE6557" d="M63.957,72.463c5.263-1.215,10.556-0.91,15.884-1.434c0.505-0.05,0.635-1.108,0.082-1.134
						c-5.348-0.253-10.897,0.18-16.041,1.701C63.498,71.71,63.507,72.566,63.957,72.463L63.957,72.463z"/>
				</g>
				<g>
					<path fill="#EE6557" d="M60.955,67.407c4.29-0.378,8.6-0.422,12.888-0.792c0.559-0.048,0.687-1.109,0.065-1.083
						c-4.336,0.181-8.661,0.502-12.947,1.197C60.646,66.78,60.593,67.439,60.955,67.407L60.955,67.407z"/>
				</g>
				<g>
					<path fill="#EE6557" d="M58.626,63.349c4.174-1.149,8.304-1.83,12.646-1.695c0.567,0.018,0.724-0.998,0.115-1.069
						c-4.414-0.519-8.674,0.596-12.835,1.984C58.155,62.701,58.142,63.482,58.626,63.349L58.626,63.349z"/>
				</g>
				<g>
					<path fill="#EE6557" d="M54.6,60.338c3.696-1.385,7.557-1.817,11.415-2.513c0.496-0.09,0.563-1.135-0.009-1.074
						C62,57.184,58.079,58.034,54.37,59.635C53.96,59.811,54.129,60.515,54.6,60.338L54.6,60.338z"/>
				</g>
				<g>
					<path fill="#EE6557" d="M50.773,57.518c4.196-2.265,8.836-2.863,13.352-4.173c0.581-0.169,0.704-1.3-0.029-1.154
						c-4.668,0.936-9.44,2.102-13.54,4.603C50.187,57.019,50.309,57.77,50.773,57.518L50.773,57.518z"/>
				</g>
				<g>
					<path fill="#EE6557" d="M50.853,54.079c2.736-2.567,6.334-3.747,9.875-4.732c0.552-0.154,0.666-1.198-0.029-1.085
						c-3.819,0.626-7.634,2.409-10.298,5.253C50.11,53.828,50.497,54.414,50.853,54.079L50.853,54.079z"/>
				</g>
			</g>
		</g>
	</g>
</g>
<g id="yes">
	<g id="Layer_2">
		<g>
			<g>
				<path fill="#16A6B6" d="M23.915,48.715c-3.017,2.99-6.752,4.201-10.228,6.369c-0.329,0.205-0.397,0.762-0.15,1.058
					c5.11,6.107,8.859,13.749,12.492,20.937c1.469,2.905,2.912,5.845,4.142,8.879c0.908,2.239,8.431,2.028,10.522,2.07
					c0.419,0.009,0.723-0.311,0.818-0.741c6.112-27.858,27.78-48.33,47.28-65.905c0.445-0.401,0.66-1.376-0.088-1.576
					c-5.872-1.569-12.2-4.512-18.302-4.775c-1.212-0.052-3.925-0.356-4.845,0.659c-2.578,2.847-4.891,5.923-7.099,9.109
					c-9.306,13.429-17.351,28.946-22.377,44.854c0.483-0.139,0.966-0.279,1.449-0.419c-4.307-6.908-7.684-14.46-12.725-20.811
					c-0.649-0.818-1.704,0.569-1.128,1.339c4.799,6.425,8.216,13.749,12.468,20.576c0.458,0.736,1.231,0.273,1.449-0.419
					c4.789-15.192,12.547-29.849,21.174-42.847c1.792-2.699,3.712-5.294,5.74-7.788c1.871-2.3,3.453-2.606,6.19-2.377
					c5.876,0.492,11.855,3.094,17.54,4.609c-0.029-0.525-0.059-1.051-0.088-1.576c-18.34,16.586-37.745,35.008-46.07,60.011
					c-0.839,2.518-0.675,6.55-3.666,6.303c-2.252-0.186-6.552-0.036-7.568-2.418c-1.904-4.464-4.195-8.752-6.486-12.991
					c-2.424-4.486-4.996-8.895-7.895-13.041c-0.506-0.724-1.048-1.417-1.597-2.103c0.041,0.051,4.104-2.107,4.554-2.327
					c1.96-0.957,3.588-2.319,5.143-3.904C25.055,48.97,24.443,48.191,23.915,48.715L23.915,48.715z"/>
			</g>
			<g>
				<g>
					<path fill="#16A6B6" d="M41.388,87.579C48.601,62.626,65.83,44.734,84.83,29.716c0.616-0.488,0.107-1.346-0.558-0.936
						c-4.919,3.036-9.086,7.402-13.349,11.387c-4.897,4.58-9.532,9.068-13.722,14.439c-7.281,9.332-13.829,20.796-16.415,32.809
						C40.69,87.86,41.267,87.998,41.388,87.579L41.388,87.579z"/>
				</g>
				<g>
					<path fill="#16A6B6" d="M86.032,27.767c1.661-2.365,1.781-5.432,2.899-8.078c0.232-0.547-0.536-0.686-0.769-0.256
						c-1.331,2.466-1.053,5.537-2.615,7.903C85.274,27.751,85.741,28.182,86.032,27.767L86.032,27.767z"/>
				</g>
				<g>
					<path fill="#16A6B6" d="M80.284,33.021c1.086-1.878,2.315-3.847,3.006-5.941c0.207-0.627-0.47-0.821-0.75-0.301
						c-1.033,1.917-1.817,4.008-2.789,5.966C79.563,33.125,80.086,33.363,80.284,33.021L80.284,33.021z"/>
				</g>
				<g>
					<path fill="#16A6B6" d="M76.255,35.293c0.712-1.438,1.58-2.754,2.363-4.144c0.333-0.59-0.464-1.011-0.814-0.493
						c-0.913,1.353-1.652,2.883-2.318,4.392C75.216,35.663,75.999,35.812,76.255,35.293L76.255,35.293z"/>
				</g>
				<g>
					<path fill="#16A6B6" d="M71.006,40.401c0.987-1.093,1.897-2.259,2.632-3.567c0.337-0.599-0.342-1.126-0.706-0.528
						c-0.752,1.236-1.508,2.467-2.319,3.658C70.403,40.273,70.73,40.707,71.006,40.401L71.006,40.401z"/>
				</g>
				<g>
					<path fill="#16A6B6" d="M64.563,46.779c0.578-0.747,1.082-1.54,1.54-2.378c0.271-0.495-0.306-0.923-0.587-0.424
						c-0.451,0.8-0.879,1.615-1.396,2.368C63.889,46.68,64.3,47.119,64.563,46.779L64.563,46.779z"/>
				</g>
				<g>
					<path fill="#16A6B6" d="M45.01,52.125c4.181-7.97,8.019-16.268,13.665-23.181c0.33-0.404-0.178-0.845-0.509-0.452
						C52.43,35.305,48.663,43.81,44.643,51.85C44.486,52.163,44.842,52.445,45.01,52.125L45.01,52.125z"/>
				</g>
				<g>
					<path fill="#16A6B6" d="M59.035,28.497c2.68-4.32,5.837-8.023,9.063-11.855c0.253-0.301-0.106-0.625-0.367-0.349
						c-3.411,3.619-6.428,7.622-9.053,11.937C58.497,28.528,58.85,28.795,59.035,28.497L59.035,28.497z"/>
				</g>
				<g>
					<path fill="#16A6B6" d="M57.202,29.653c0.667-0.853,1.337-1.706,1.928-2.624c0.211-0.328-0.167-0.634-0.389-0.312
						c-0.619,0.902-1.261,1.782-1.919,2.651C56.596,29.668,56.978,29.94,57.202,29.653L57.202,29.653z"/>
				</g>
				<g>
					<path fill="#16A6B6" d="M30.336,86.179c0.045,0.546,0.131,1.069,0.143,1.617c0.003,0.134,0.087,0.246,0.2,0.29
						c1.856,0.713,3.772,0.266,5.691,0.179c1.509-0.068,3.182,0.87,4.612,0.051c0.346-0.199,0.331-1.019-0.148-0.821
						c-1.355,0.562-2.904-0.134-4.315-0.152c-1.814-0.023-5.27,1.38-5.62-1.321C30.842,85.591,30.306,85.813,30.336,86.179
						L30.336,86.179z"/>
				</g>
				<g>
					<path fill="#16A6B6" d="M13.677,55.811c-0.179,0.063-0.357,0.127-0.536,0.19c-0.162,0.058-0.256,0.298-0.178,0.463
						c2.538,5.396,6.205,10.095,9.175,15.212c2.963,5.105,5.149,10.815,7.269,16.371c0.248,0.649,0.937,0.075,0.729-0.468
						c-2.168-5.665-4.446-11.293-7.351-16.567c-0.688-1.25-9.176-14.619-9.018-14.7C14.011,56.188,13.995,55.698,13.677,55.811
						L13.677,55.811z"/>
				</g>
				<g>
					<path fill="#16A6B6" d="M30.237,88.195c-0.03-0.38-0.06-0.759-0.085-1.14c-0.032-0.493,0.009-1.009-0.083-1.493
						c-0.088-0.467-0.526-0.358-0.595,0.055c-0.145,0.868,0.123,1.87,0.256,2.728C29.801,88.802,30.268,88.593,30.237,88.195
						L30.237,88.195z"/>
				</g>
				<g>
					<path fill="#16A6B6" d="M29.187,85.779c0.023-1.104-0.021-2.208-0.175-3.301c-0.075-0.533-0.622-0.3-0.593,0.163
						c0.068,1.064,0.213,2.12,0.251,3.187C28.684,86.226,29.179,86.15,29.187,85.779L29.187,85.779z"/>
				</g>
				<g>
					<path fill="#16A6B6" d="M20.453,67.152c-0.186-0.696-0.063-1.34,0.018-2.04c0.06-0.514-0.527-0.521-0.615-0.057
						c-0.148,0.785-0.161,1.654,0.251,2.349C20.245,67.638,20.508,67.358,20.453,67.152L20.453,67.152z"/>
				</g>
				<g>
					<path fill="#16A6B6" d="M18.641,63.881c0.015-0.422,0.021-0.829-0.097-1.236c-0.132-0.455-0.647-0.067-0.56,0.309
						c0.079,0.345,0.099,0.697,0.113,1.05C18.114,64.465,18.628,64.251,18.641,63.881L18.641,63.881z"/>
				</g>
				<g>
					<path fill="#16A6B6" d="M17.241,61.689c0.099-0.407,0.207-0.807,0.39-1.18c0.141-0.29-0.201-0.581-0.384-0.288
						c-0.27,0.43-0.384,0.903-0.496,1.403C16.66,62.031,17.152,62.051,17.241,61.689L17.241,61.689z"/>
				</g>
				<g>
					<path fill="#16A6B6" d="M20.352,51.563c0.971-1.23,2.37-1.837,3.71-2.455c0.181-0.083,0.172-0.413-0.057-0.337
						c-1.402,0.465-2.928,1.381-3.816,2.669C20.11,51.556,20.271,51.667,20.352,51.563L20.352,51.563z"/>
				</g>
				<g>
					<path fill="#16A6B6" d="M13.369,55.484c2.616-2.193,5.547-3.831,8.422-5.58c0.172-0.105,0.062-0.377-0.113-0.271
						c-2.898,1.758-5.834,3.428-8.446,5.669C13.105,55.411,13.242,55.59,13.369,55.484L13.369,55.484z"/>
				</g>
				<g>
					<path fill="#16A6B6" d="M84.291,29.703c0.678-0.66,1.322-1.368,1.849-2.177c0.124-0.191-0.092-0.392-0.225-0.2
						c-0.535,0.775-1.114,1.5-1.758,2.17C84.04,29.619,84.155,29.835,84.291,29.703L84.291,29.703z"/>
				</g>
				<g>
					<path fill="#16A6B6" d="M83.437,29.83c0.611-0.652,1.265-1.252,1.867-1.912c0.484-0.531,1.121-1.236,1.225-2.007
						c0.034-0.247-0.282-0.239-0.369-0.071c-0.379,0.728-0.753,1.353-1.288,1.965c-0.538,0.617-1.13,1.185-1.627,1.842
						C83.119,29.813,83.299,29.978,83.437,29.83L83.437,29.83z"/>
				</g>
			</g>
		</g>
	</g>
</g>
</svg>
