<?xml version="1.0" encoding="utf-8"?>
<!-- Generator: Adobe Illustrator 17.0.0, SVG Export Plug-In . SVG Version: 6.00 Build 0)  -->
<!DOCTYPE svg PUBLIC "-//W3C//DTD SVG 1.1//EN" "http://www.w3.org/Graphics/SVG/1.1/DTD/svg11.dtd">
<svg version="1.1" id="yes" xmlns="http://www.w3.org/2000/svg" xmlns:xlink="http://www.w3.org/1999/xlink" x="0px" y="0px"
	 width="80px" height="80px" viewBox="0 0 80 80" enable-background="new 0 0 80 80" xml:space="preserve">
<g id="Layer_2">
	<g>
		<g>
			<path fill="#16A6B6" d="M16.771,37.581c-2.703,2.476-6.048,3.479-9.162,5.274c-0.294,0.17-0.356,0.631-0.134,0.876
				c4.578,5.057,7.936,11.385,11.19,17.337c1.315,2.406,2.608,4.84,3.71,7.352c0.814,1.854,7.552,1.68,9.425,1.714
				c0.375,0.007,0.648-0.257,0.732-0.614C38.007,46.452,57.416,29.5,74.884,14.946c0.398-0.332,0.592-1.139-0.079-1.305
				c-5.26-1.299-10.929-3.737-16.394-3.954c-1.085-0.043-3.516-0.295-4.34,0.546c-2.309,2.357-4.381,4.905-6.359,7.543
				c-8.336,11.121-15.542,23.969-20.045,37.143c0.432-0.115,0.865-0.231,1.298-0.347c-3.858-5.721-6.883-11.974-11.399-17.233
				c-0.581-0.677-1.526,0.471-1.011,1.109c4.299,5.321,7.36,11.385,11.168,17.038c0.411,0.609,1.103,0.226,1.298-0.347
				c4.29-12.58,11.239-24.717,18.967-35.481c1.605-2.235,3.325-4.384,5.142-6.449c1.676-1.904,3.094-2.158,5.545-1.968
				c5.264,0.407,10.619,2.562,15.711,3.817c-0.026-0.435-0.053-0.87-0.079-1.305c-16.429,13.734-33.811,28.99-41.268,49.694
				c-0.751,2.085-0.605,5.424-3.284,5.219c-2.017-0.154-5.869-0.03-6.779-2.002c-1.705-3.697-3.757-7.247-5.81-10.758
				c-2.171-3.715-4.475-7.366-7.072-10.799c-0.454-0.6-0.939-1.173-1.431-1.742c0.036,0.042,3.676-1.745,4.08-1.927
				c1.756-0.793,3.214-1.92,4.607-3.233C17.792,37.792,17.244,37.147,16.771,37.581L16.771,37.581z"/>
		</g>
		<g>
			<g>
				<path fill="#16A6B6" d="M32.423,69.763C38.883,49.1,54.317,34.284,71.336,21.848c0.552-0.404,0.096-1.114-0.499-0.775
					c-4.406,2.514-8.139,6.129-11.958,9.43c-4.387,3.792-8.538,7.509-12.291,11.956C40.065,50.187,34.2,59.681,31.883,69.628
					C31.797,69.996,32.314,70.111,32.423,69.763L32.423,69.763z"/>
			</g>
			<g>
				<path fill="#16A6B6" d="M72.413,20.235c1.488-1.958,1.595-4.498,2.597-6.689c0.207-0.453-0.48-0.568-0.688-0.212
					c-1.193,2.042-0.943,4.585-2.343,6.545C71.734,20.221,72.152,20.578,72.413,20.235L72.413,20.235z"/>
			</g>
			<g>
				<path fill="#16A6B6" d="M67.264,24.585c0.972-1.555,2.074-3.185,2.693-4.92c0.185-0.52-0.421-0.68-0.672-0.249
					c-0.926,1.587-1.628,3.319-2.498,4.941C66.618,24.672,67.087,24.869,67.264,24.585L67.264,24.585z"/>
			</g>
			<g>
				<path fill="#16A6B6" d="M63.655,26.467c0.638-1.191,1.415-2.281,2.117-3.431c0.298-0.489-0.416-0.837-0.729-0.408
					c-0.818,1.12-1.48,2.387-2.076,3.637C62.725,26.773,63.426,26.897,63.655,26.467L63.655,26.467z"/>
			</g>
			<g>
				<path fill="#16A6B6" d="M58.953,30.697c0.884-0.905,1.699-1.871,2.357-2.954c0.302-0.496-0.306-0.932-0.632-0.438
					c-0.673,1.023-1.35,2.043-2.077,3.029C58.413,30.59,58.706,30.95,58.953,30.697L58.953,30.697z"/>
			</g>
			<g>
				<path fill="#16A6B6" d="M53.182,35.978c0.518-0.619,0.969-1.275,1.379-1.969c0.242-0.41-0.274-0.765-0.526-0.351
					c-0.404,0.663-0.787,1.337-1.251,1.961C52.578,35.896,52.946,36.26,53.182,35.978L53.182,35.978z"/>
			</g>
			<g>
				<path fill="#16A6B6" d="M35.666,40.405c3.746-6.6,7.183-13.471,12.241-19.196c0.296-0.334-0.159-0.699-0.456-0.374
					c-5.139,5.642-8.513,12.685-12.114,19.343C35.198,40.436,35.516,40.67,35.666,40.405L35.666,40.405z"/>
			</g>
			<g>
				<path fill="#16A6B6" d="M48.23,20.839c2.4-3.577,5.229-6.644,8.119-9.817c0.227-0.249-0.095-0.518-0.329-0.289
					c-3.056,2.997-5.758,6.311-8.109,9.885C47.748,20.865,48.064,21.086,48.23,20.839L48.23,20.839z"/>
			</g>
			<g>
				<path fill="#16A6B6" d="M46.588,21.796c0.598-0.707,1.197-1.412,1.727-2.173c0.189-0.272-0.149-0.525-0.348-0.258
					c-0.555,0.747-1.13,1.475-1.719,2.195C46.045,21.809,46.388,22.034,46.588,21.796L46.588,21.796z"/>
			</g>
			<g>
				<path fill="#16A6B6" d="M22.523,68.604c0.04,0.452,0.117,0.885,0.128,1.339c0.002,0.111,0.078,0.204,0.179,0.24
					c1.663,0.59,3.379,0.22,5.097,0.148c1.352-0.056,2.85,0.721,4.131,0.042c0.31-0.165,0.296-0.844-0.133-0.68
					c-1.214,0.465-2.601-0.111-3.865-0.126c-1.625-0.019-4.721,1.142-5.034-1.094C22.976,68.117,22.495,68.302,22.523,68.604
					L22.523,68.604z"/>
			</g>
			<g>
				<path fill="#16A6B6" d="M7.6,43.457c-0.16,0.053-0.32,0.105-0.48,0.158c-0.145,0.048-0.229,0.247-0.16,0.383
					c2.273,4.468,5.558,8.359,8.219,12.597c2.654,4.228,4.612,8.956,6.512,13.557c0.222,0.537,0.839,0.062,0.653-0.387
					c-1.942-4.691-3.983-9.351-6.585-13.719C15.143,55.01,7.54,43.939,7.681,43.872C7.899,43.77,7.884,43.363,7.6,43.457L7.6,43.457
					z"/>
			</g>
			<g>
				<path fill="#16A6B6" d="M22.433,70.274c-0.027-0.314-0.054-0.629-0.076-0.944c-0.029-0.409,0.008-0.835-0.074-1.237
					c-0.079-0.387-0.471-0.296-0.533,0.046c-0.13,0.719,0.11,1.549,0.23,2.259C22.043,70.776,22.462,70.603,22.433,70.274
					L22.433,70.274z"/>
			</g>
			<g>
				<path fill="#16A6B6" d="M21.493,68.273c0.021-0.914-0.019-1.829-0.157-2.734c-0.067-0.441-0.558-0.249-0.531,0.135
					c0.061,0.881,0.191,1.756,0.225,2.639C21.043,68.644,21.486,68.58,21.493,68.273L21.493,68.273z"/>
			</g>
			<g>
				<path fill="#16A6B6" d="M13.669,52.849c-0.167-0.576-0.056-1.11,0.016-1.689c0.053-0.426-0.472-0.431-0.55-0.047
					c-0.132,0.65-0.144,1.37,0.225,1.945C13.483,53.251,13.719,53.019,13.669,52.849L13.669,52.849z"/>
			</g>
			<g>
				<path fill="#16A6B6" d="M12.046,50.139c0.013-0.35,0.018-0.687-0.087-1.023c-0.118-0.377-0.58-0.056-0.502,0.256
					c0.071,0.285,0.089,0.577,0.101,0.87C11.574,50.623,12.034,50.446,12.046,50.139L12.046,50.139z"/>
			</g>
			<g>
				<path fill="#16A6B6" d="M10.792,48.325c0.089-0.337,0.185-0.668,0.349-0.977c0.127-0.24-0.18-0.481-0.344-0.238
					c-0.242,0.356-0.344,0.748-0.444,1.162C10.272,48.608,10.713,48.624,10.792,48.325L10.792,48.325z"/>
			</g>
			<g>
				<path fill="#16A6B6" d="M13.579,39.94c0.87-1.019,2.123-1.521,3.323-2.033c0.162-0.069,0.154-0.342-0.051-0.279
					c-1.256,0.385-2.623,1.143-3.418,2.21C13.362,39.933,13.506,40.025,13.579,39.94L13.579,39.94z"/>
			</g>
			<g>
				<path fill="#16A6B6" d="M7.324,43.186c2.343-1.816,4.969-3.173,7.544-4.62c0.154-0.087,0.056-0.312-0.101-0.224
					c-2.596,1.455-5.226,2.839-7.566,4.694C7.087,43.126,7.21,43.274,7.324,43.186L7.324,43.186z"/>
			</g>
			<g>
				<path fill="#16A6B6" d="M70.853,21.838c0.608-0.547,1.184-1.133,1.656-1.802c0.111-0.158-0.083-0.324-0.202-0.165
					c-0.48,0.642-0.997,1.242-1.575,1.797C70.628,21.768,70.732,21.947,70.853,21.838L70.853,21.838z"/>
			</g>
			<g>
				<path fill="#16A6B6" d="M70.089,21.943c0.547-0.54,1.133-1.037,1.672-1.584c0.434-0.44,1.004-1.024,1.097-1.662
					c0.03-0.205-0.252-0.198-0.331-0.059c-0.34,0.603-0.675,1.12-1.154,1.628c-0.482,0.511-1.012,0.981-1.458,1.525
					C69.804,21.929,69.965,22.065,70.089,21.943L70.089,21.943z"/>
			</g>
		</g>
	</g>
</g>
</svg>
