<?xml version="1.0" encoding="utf-8"?>
<!-- Generator: Adobe Illustrator 17.0.0, SVG Export Plug-In . SVG Version: 6.00 Build 0)  -->
<!DOCTYPE svg PUBLIC "-//W3C//DTD SVG 1.1//EN" "http://www.w3.org/Graphics/SVG/1.1/DTD/svg11.dtd">
<svg version="1.1" xmlns="http://www.w3.org/2000/svg" xmlns:xlink="http://www.w3.org/1999/xlink" x="0px" y="0px" width="80px"
	 height="80px" viewBox="0 0 80 80" enable-background="new 0 0 80 80" xml:space="preserve">
<g id="no">
	<g id="Layer_4">
		<g>
			<g>
				<path fill="#EE6557" d="M17.218,2.376c-5.079,3.687-8.219,8.774-12.73,13.031c-0.344,0.324-0.53,1.026-0.046,1.333
					c3.962,2.516,7.705,5.251,11.287,8.285c1.928,1.633,14.194,11.814,11.924,15.143c-6.792,9.961-16.17,17.807-23.642,27.226
					c-0.347,0.437-0.434,1.205,0.069,1.573c4.533,3.313,9.525,6.042,13.711,9.814c0.349,0.314,1.035,0.189,1.337-0.128
					c9.174-9.652,16.355-21.38,22.356-33.21c-0.657,0.127-1.314,0.253-1.97,0.379c6.359,9.517,12.814,18.921,20.227,27.658
					c0.463,0.545,1.047,0.508,1.617,0.141c4.594-2.961,9.444-5.5,14.038-8.46c0.484-0.311,0.839-1.28,0.412-1.77
					c-7.733-8.874-15.973-17.29-23.717-26.156c-4.074-4.665,5.512-10.776,9.014-14.175c3.827-3.712,7.579-7.488,11.235-11.368
					c0.411-0.436,0.515-1.501-0.086-1.847C67.472,7.1,62.673,4.339,58.136,1.195c-0.569-0.394-1.438-0.194-1.811,0.396
					c-5.317,8.434-11.415,16.439-17.439,24.374c0.607-0.133,1.214-0.266,1.821-0.398C32.846,17.833,25.572,9.533,17.712,1.796
					c-1.23-1.21-3.207,0.842-2.038,1.989c7.965,7.822,15.336,16.218,23.299,24.043c0.529,0.52,1.456,0.083,1.821-0.398
					c6.021-7.938,12.115-15.946,17.428-24.382c-0.603,0.132-1.208,0.264-1.811,0.396c4.537,3.141,9.339,5.9,14.123,8.645
					c-0.029-0.615-0.058-1.231-0.086-1.847c-7.592,8.065-15.78,15.532-23.371,23.599c-0.349,0.37-0.501,1.183-0.149,1.602
					c4.677,5.578,9.612,10.919,14.579,16.238c3.128,3.35,6.262,6.695,9.343,10.088c0.55,0.998,1.332,1.699,2.345,2.103
					c-1.634,1.062-3.341,2.029-5.02,3.02c-1.981,1.171-3.975,2.32-5.929,3.535c-2.295,1.427-5.39-4.452-6.862-6.334
					C50.414,57.74,45.946,51,41.456,44.305c-0.535-0.797-1.616-0.319-1.97,0.379c-3.345,6.592-7.134,12.907-11.258,19.041
					c-2.233,3.322-4.648,6.515-7.164,9.627c-2.958,3.658-2.284,2.966-4.876,1.017c-1.337-1.006-2.737-1.934-4.119-2.876
					c-1.96-1.335-3.95-2.622-5.902-3.967c0.336,0.232,7.009-7.628,7.73-8.397c5.966-6.366,11.801-12.601,16.696-19.859
					c0.245-0.362,0.394-0.901,0.092-1.285c-5.021-6.372-10.587-12.088-16.972-17.094c-2.46-1.928-8.502-3.826-5.598-7.026
					c3.259-3.594,5.817-7.389,9.773-10.344C18.513,3.053,17.914,1.87,17.218,2.376L17.218,2.376z"/>
			</g>
			<g>
				<g>
					<path fill="#EE6557" d="M8.499,16.817c3.013-3.491,5.605-7.289,8.851-10.58c0.396-0.401-0.11-0.985-0.547-0.595
						c-3.458,3.076-5.861,7.139-8.786,10.688C7.722,16.688,8.173,17.194,8.499,16.817L8.499,16.817z"/>
				</g>
				<g>
					<path fill="#EE6557" d="M14.457,13.958c2-2.485,4.117-4.844,6.479-6.992c0.348-0.317-0.09-0.826-0.458-0.499
						c-2.386,2.125-4.493,4.526-6.489,7.015C13.705,13.837,14.154,14.334,14.457,13.958L14.457,13.958z"/>
				</g>
				<g>
					<path fill="#EE6557" d="M13.755,19.072c2.003-3.317,4.544-6.168,7.48-8.681c0.425-0.364-0.089-0.981-0.536-0.603
						c-3.013,2.543-5.56,5.558-7.561,8.955C12.879,19.179,13.496,19.501,13.755,19.072L13.755,19.072z"/>
				</g>
				<g>
					<path fill="#EE6557" d="M14.457,21.992c2.915-3.388,5.885-6.688,9.11-9.785c0.406-0.39-0.09-1.004-0.531-0.604
						c-3.319,3.016-6.183,6.488-9.047,9.926C13.7,21.877,14.142,22.358,14.457,21.992L14.457,21.992z"/>
				</g>
				<g>
					<path fill="#EE6557" d="M16.613,24.257c2.241-4.012,5.061-7.553,8.698-10.376c0.457-0.354,0.17-1.239-0.39-0.843
						c-3.877,2.74-6.733,6.744-8.941,10.893C15.733,24.395,16.36,24.712,16.613,24.257L16.613,24.257z"/>
				</g>
				<g>
					<path fill="#EE6557" d="M18.947,25.295c2.343-3.799,4.884-7.381,8.43-10.153c0.42-0.328,0.145-1.132-0.372-0.769
						c-3.811,2.683-6.355,6.645-8.689,10.598C18.049,25.426,18.677,25.734,18.947,25.295L18.947,25.295z"/>
				</g>
				<g>
					<path fill="#EE6557" d="M21.542,27.37c2.186-3.674,4.714-6.843,8.184-9.373c0.449-0.328,0.145-1.102-0.398-0.771
						c-3.75,2.288-6.305,6.062-8.419,9.818C20.648,27.504,21.278,27.815,21.542,27.37L21.542,27.37z"/>
				</g>
				<g>
					<path fill="#EE6557" d="M23.098,29.969c2.645-4.574,5.969-8.477,9.83-12.06c0.359-0.334-0.067-1.028-0.485-0.676
						c-4.103,3.444-7.375,7.733-9.972,12.4C22.212,30.098,22.833,30.425,23.098,29.969L23.098,29.969z"/>
				</g>
				<g>
					<path fill="#EE6557" d="M25.615,31.866c2.753-3.96,5.833-7.439,9.567-10.5c0.425-0.348,0.114-1.133-0.416-0.767
						c-4.023,2.78-7.044,6.806-9.691,10.857C24.839,31.819,25.356,32.239,25.615,31.866L25.615,31.866z"/>
				</g>
				<g>
					<path fill="#EE6557" d="M28.986,34.198c2.816-3.862,5.541-7.499,9.306-10.501c0.43-0.344,0.128-1.085-0.413-0.759
						c-4.081,2.464-6.722,6.948-9.369,10.767C28.246,34.086,28.678,34.622,28.986,34.198L28.986,34.198z"/>
				</g>
				<g>
					<path fill="#EE6557" d="M30.299,36.03c3.493-4.437,7.214-8.485,11.376-12.304c0.419-0.384,0.12-1.248-0.437-0.819
						c-4.507,3.459-8.063,8.082-11.447,12.597C29.491,35.905,29.953,36.468,30.299,36.03L30.299,36.03z"/>
				</g>
				<g>
					<path fill="#EE6557" d="M30.978,38.651c4.235-3.972,7.74-8.647,11.295-13.218c0.359-0.462-0.174-1.09-0.594-0.599
						c-3.76,4.393-6.937,9.235-11.08,13.301C30.327,38.4,30.666,38.943,30.978,38.651L30.978,38.651z"/>
				</g>
				<g>
					<path fill="#EE6557" d="M8.506,66.215c3.916,3.542,7.34,8.23,11.918,10.941c0.499,0.294,0.988-0.449,0.568-0.818
						c-4.043-3.547-7.893-7.308-11.944-10.845C8.642,65.139,8.134,65.879,8.506,66.215L8.506,66.215z"/>
				</g>
				<g>
					<path fill="#EE6557" d="M11.117,63.868c3.279,3.415,6.03,7.289,9.294,10.711c0.378,0.396,0.994-0.392,0.671-0.763
						c-3.116-3.577-6.088-7.304-9.461-10.645C11.257,62.81,10.791,63.529,11.117,63.868L11.117,63.868z"/>
				</g>
				<g>
					<path fill="#EE6557" d="M13.439,61.531c3.495,3.516,5.613,8.181,9.288,11.522c0.488,0.443,1.039-0.492,0.631-0.912
						c-3.438-3.524-5.77-7.95-9.387-11.301C13.591,60.489,13.106,61.195,13.439,61.531L13.439,61.531z"/>
				</g>
				<g>
					<path fill="#EE6557" d="M15.369,58.125c2.75,3.625,4.813,7.891,8.15,11.036c0.417,0.392,1.015-0.438,0.684-0.816
						c-3.012-3.429-5.296-7.347-8.088-10.94C15.773,56.966,15.063,57.722,15.369,58.125L15.369,58.125z"/>
				</g>
				<g>
					<path fill="#EE6557" d="M17.016,55.465c3.141,4.176,4.295,9.97,8.33,13.437c0.43,0.37,0.986-0.447,0.661-0.82
						c-3.488-3.999-4.904-9.25-8.407-13.183C17.308,54.571,16.781,55.151,17.016,55.465L17.016,55.465z"/>
				</g>
				<g>
					<path fill="#EE6557" d="M19.451,54.453c3.263,3.404,4.188,8.143,7.102,11.761c0.416,0.516,1.078-0.251,0.756-0.72
						c-2.552-3.706-3.806-8.721-7.421-11.583C19.557,53.649,19.18,54.17,19.451,54.453L19.451,54.453z"/>
				</g>
				<g>
					<path fill="#EE6557" d="M20.917,52.244c1.932,4.663,4.018,9.392,6.695,13.679c0.334,0.532,0.963-0.204,0.72-0.659
						c-2.364-4.416-4.493-8.944-6.829-13.371C21.314,51.538,20.784,51.923,20.917,52.244L20.917,52.244z"/>
				</g>
				<g>
					<path fill="#EE6557" d="M22.488,48.719c2.598,3.765,3.731,8.297,6.364,12.031c0.393,0.557,1.157-0.188,0.83-0.686
						c-2.487-3.778-3.629-8.5-6.658-11.901C22.742,47.848,22.28,48.419,22.488,48.719L22.488,48.719z"/>
				</g>
				<g>
					<path fill="#EE6557" d="M25.055,42.245c2.682,5.645,4.375,11.729,7.488,17.17c0.296,0.517,0.947-0.16,0.712-0.608
						c-2.914-5.519-4.799-11.481-7.558-17.069C25.466,41.273,24.864,41.84,25.055,42.245L25.055,42.245z"/>
				</g>
				<g>
					<path fill="#EE6557" d="M27.343,39.68c2.466,5.176,4.147,11.066,7.751,15.605c0.404,0.509,1.094-0.156,0.795-0.652
						c-3.013-5.008-5.203-10.303-7.811-15.517C27.815,38.589,27.123,39.22,27.343,39.68L27.343,39.68z"/>
				</g>
				<g>
					<path fill="#EE6557" d="M31.679,36.985c1.452,4.584,2.632,9.686,5.488,13.645c0.403,0.558,1.048-0.174,0.801-0.678
						c-2.146-4.355-3.831-8.746-5.41-13.331C32.346,36.007,31.507,36.444,31.679,36.985L31.679,36.985z"/>
				</g>
				<g>
					<path fill="#EE6557" d="M33.148,33.888c1.99,4.711,3.205,9.868,6.071,14.159c0.386,0.578,1.17-0.188,0.845-0.699
						c-2.755-4.338-3.943-9.36-6.377-13.853C33.479,33.111,33.006,33.553,33.148,33.888L33.148,33.888z"/>
				</g>
				<g>
					<path fill="#EE6557" d="M38.184,27.382c1.671,6.48,4.015,13.277,7.792,18.85c0.39,0.575,1.086-0.193,0.816-0.7
						c-3.174-5.978-5.919-11.961-7.769-18.5C38.854,26.428,38.049,26.861,38.184,27.382L38.184,27.382z"/>
				</g>
				<g>
					<path fill="#EE6557" d="M42.707,24.978c2.348,3.03,3.641,7.004,6.416,9.681c0.506,0.488,1.098-0.425,0.751-0.897
						c-2.276-3.097-4.09-6.557-6.552-9.512C42.965,23.821,42.399,24.58,42.707,24.978L42.707,24.978z"/>
				</g>
				<g>
					<path fill="#EE6557" d="M44.552,24.563c1.681,2.606,2.74,5.685,4.86,7.985c0.428,0.464,1.035-0.392,0.691-0.826
						c-1.897-2.39-3.225-5.105-4.997-7.576C44.854,23.793,44.341,24.237,44.552,24.563L44.552,24.563z"/>
				</g>
				<g>
					<path fill="#EE6557" d="M45.749,18.135c1.731,4.096,2.175,9.291,5.723,12.353c0.497,0.429,1.108-0.41,0.72-0.856
						c-3.065-3.509-3.773-7.921-5.689-12.027C46.252,17.07,45.55,17.665,45.749,18.135L45.749,18.135z"/>
				</g>
				<g>
					<path fill="#EE6557" d="M48.923,15.753c1.79,3.867,2.214,8.803,5.398,11.886c0.481,0.466,1.104-0.408,0.727-0.863
						c-2.827-3.409-3.225-7.777-5.495-11.458C49.296,14.901,48.745,15.368,48.923,15.753L48.923,15.753z"/>
				</g>
				<g>
					<path fill="#EE6557" d="M52.574,11.743c0.309,4.465,2.059,9.332,4.268,13.196c0.347,0.606,1.12-0.118,0.871-0.65
						c-1.946-4.15-3.492-8.271-4.548-12.743C53.065,11.115,52.55,11.388,52.574,11.743L52.574,11.743z"/>
				</g>
				<g>
					<path fill="#EE6557" d="M53.989,8.681c1.02,4.537,1.325,9.684,4.213,13.522c0.376,0.498,1.099-0.319,0.83-0.779
						c-2.382-4.058-3.025-8.55-4.168-13.039C54.707,7.773,53.868,8.144,53.989,8.681L53.989,8.681z"/>
				</g>
				<g>
					<path fill="#EE6557" d="M57.393,7.495c1.622,4.21,1.696,8.958,3.581,13.046c0.28,0.606,1.085-0.033,0.955-0.545
						c-1.096-4.329-1.936-8.912-3.728-13.018C57.955,6.415,57.205,7.003,57.393,7.495L57.393,7.495z"/>
				</g>
				<g>
					<path fill="#EE6557" d="M61.2,7.478c2.388,3.557,1.655,7.987,3.4,11.772c0.277,0.6,1.136-0.037,0.966-0.557
						C64.4,15.13,64.742,9.585,61.656,6.994C61.345,6.735,61.001,7.181,61.2,7.478L61.2,7.478z"/>
				</g>
				<g>
					<path fill="#EE6557" d="M64.884,9.729c0.475,2.156,0.639,4.382,1.23,6.51c0.198,0.71,1.126,0.245,1.002-0.37
						c-0.433-2.153-0.811-4.331-1.363-6.458C65.594,8.793,64.767,9.197,64.884,9.729L64.884,9.729z"/>
				</g>
				<g>
					<path fill="#EE6557" d="M43.132,26.338c1.969,5.437,3.241,11.037,4.638,16.637c0.162,0.65,0.975,0.122,0.863-0.409
						c-1.177-5.668-2.682-11.252-4.739-16.668C43.713,25.419,42.983,25.924,43.132,26.338L43.132,26.338z"/>
				</g>
				<g>
					<path fill="#EE6557" d="M43.03,48.965c1.828-3.095,3.548-6.242,5.498-9.266c0.335-0.518-0.266-1.181-0.652-0.603
						c-2.013,3.007-3.616,6.264-5.396,9.41C42.237,48.936,42.746,49.445,43.03,48.965L43.03,48.965z"/>
				</g>
				<g>
					<path fill="#EE6557" d="M46.653,51.827c2.432-3.755,4.434-7.739,7.049-11.38c0.346-0.481-0.218-1.046-0.625-0.544
						c-2.823,3.483-4.63,7.645-6.96,11.448C45.859,51.77,46.355,52.29,46.653,51.827L46.653,51.827z"/>
				</g>
				<g>
					<path fill="#EE6557" d="M48.186,53.356c1.622-2.924,3.2-5.857,5.241-8.519c0.341-0.446-0.217-0.983-0.597-0.505
						c-2.106,2.656-3.599,5.709-5.181,8.69C47.456,53.387,47.974,53.737,48.186,53.356L48.186,53.356z"/>
				</g>
				<g>
					<path fill="#EE6557" d="M49.458,58.777c2.322-4.317,4.316-8.75,7.349-12.636c0.293-0.375-0.167-1.032-0.534-0.61
						c-3.277,3.778-5.068,8.543-7.298,12.956C48.809,58.815,49.273,59.119,49.458,58.777L49.458,58.777z"/>
				</g>
				<g>
					<path fill="#EE6557" d="M51.231,61.696c3.178-3.462,4.715-8.029,7.85-11.545c0.366-0.411,0.004-1.243-0.489-0.756
						c-3.39,3.352-4.672,8.173-7.714,11.799C50.635,61.483,50.915,62.039,51.231,61.696L51.231,61.696z"/>
				</g>
				<g>
					<path fill="#EE6557" d="M53.915,63.717c2.578-3.914,4.388-8.245,7.038-12.124c0.323-0.473-0.204-1.009-0.604-0.527
						c-3.001,3.62-4.475,8.304-6.967,12.258C53.129,63.724,53.63,64.148,53.915,63.717L53.915,63.717z"/>
				</g>
				<g>
					<path fill="#EE6557" d="M55.548,65.588c2.539-3.839,4.478-7.932,7.282-11.606c0.344-0.451-0.144-1.223-0.632-0.746
						c-3.322,3.241-4.885,7.98-7.338,11.844C54.533,65.597,55.181,66.143,55.548,65.588L55.548,65.588z"/>
				</g>
				<g>
					<path fill="#EE6557" d="M57.286,67.866c0.731-1.431,1.39-2.897,2.142-4.316c1.078-2.03,2.394-3.427,4.221-4.764
						c0.322-0.235,0.432-1.143-0.178-0.954c-3.758,1.165-5.239,6.499-6.718,9.64C56.557,67.888,57.045,68.335,57.286,67.866
						L57.286,67.866z"/>
				</g>
				<g>
					<path fill="#EE6557" d="M59.41,71.007c2.371-4.639,4.59-9.007,8.282-12.76c0.474-0.481,0.025-1.376-0.597-0.87
						c-4.073,3.309-6.105,8.581-8.316,13.177C58.543,71.046,59.128,71.561,59.41,71.007L59.41,71.007z"/>
				</g>
				<g>
					<path fill="#EE6557" d="M64.391,67.145c1.845-3.114,3.627-6.067,5.889-8.903c0.391-0.491,0.043-1.399-0.584-0.86
						c-2.77,2.386-4.289,6.13-6.041,9.255C63.345,67.194,64.033,67.75,64.391,67.145L64.391,67.145z"/>
				</g>
				<g>
					<path fill="#EE6557" d="M70.318,65.031c0.788-1.791,1.404-3.643,1.922-5.529c0.188-0.688-0.669-0.954-0.874-0.264
						c-0.534,1.801-1.011,3.616-1.707,5.364C69.456,65.112,70.06,65.615,70.318,65.031L70.318,65.031z"/>
				</g>
				<g>
					<path fill="#EE6557" d="M36.105,37.498c3.387-3.871,6.64-7.832,10.251-11.501c0.463-0.472-0.109-1.214-0.625-0.729
						c-3.765,3.542-6.844,7.744-10.133,11.712C35.281,37.361,35.754,37.899,36.105,37.498L36.105,37.498z"/>
				</g>
				<g>
					<path fill="#EE6557" d="M36.91,41.423c3.209-4.193,6.468-8.245,10.28-11.911c0.459-0.441-0.093-1.115-0.597-0.679
						c-4.027,3.481-7.113,7.896-10.158,12.222C36.221,41.358,36.678,41.726,36.91,41.423L36.91,41.423z"/>
				</g>
				<g>
					<path fill="#EE6557" d="M39.202,43.142c2.733-3.065,5.386-6.196,8.27-9.122c0.432-0.438-0.122-1.075-0.597-0.637
						c-3.035,2.8-5.521,6.103-8.147,9.275C38.433,43.015,38.87,43.515,39.202,43.142L39.202,43.142z"/>
				</g>
				<g>
					<path fill="#EE6557" d="M10.044,10.451c2.156,3.716,3.317,7.919,5.632,11.543c0.332,0.521,0.987-0.192,0.717-0.649
						c-2.159-3.669-3.492-7.743-5.693-11.386C10.43,9.51,9.81,10.047,10.044,10.451L10.044,10.451z"/>
				</g>
				<g>
					<path fill="#EE6557" d="M13.976,8.774c2.713,6.296,3.243,13.471,7.244,19.188c0.357,0.51,0.936-0.258,0.67-0.696
						c-3.599-5.909-4.413-12.777-7.192-19.026C14.466,7.722,13.781,8.321,13.976,8.774L13.976,8.774z"/>
				</g>
				<g>
					<path fill="#EE6557" d="M19.761,10.231c1.713,7.484,2.558,15.378,5.648,22.474c0.272,0.626,0.96-0.05,0.785-0.556
						c-2.511-7.278-3.803-14.806-5.674-22.253C20.38,9.339,19.654,9.761,19.761,10.231L19.761,10.231z"/>
				</g>
				<g>
					<path fill="#EE6557" d="M24.241,13.614c1.847,7.463,2.746,15.256,5.237,22.543c0.228,0.665,1.02,0.197,0.858-0.385
						c-2.068-7.423-3.048-15.165-5.523-22.466C24.666,12.873,24.153,13.256,24.241,13.614L24.241,13.614z"/>
				</g>
				<g>
					<path fill="#EE6557" d="M29.668,18.91c2.108,5.647,3.126,11.609,5.125,17.287c0.271,0.772,1.202,0.203,0.986-0.465
						c-1.851-5.729-3.048-11.672-5.35-17.248C30.201,17.929,29.489,18.428,29.668,18.91L29.668,18.91z"/>
				</g>
				<g>
					<path fill="#EE6557" d="M10.196,60.899c1.085,4.364,0.879,9.755,3.691,13.493c0.327,0.435,0.899-0.217,0.679-0.609
						c-2.301-4.114-2.465-8.763-3.734-13.214C10.697,60.095,10.095,60.493,10.196,60.899L10.196,60.899z"/>
				</g>
				<g>
					<path fill="#EE6557" d="M14.415,55.142c0.506,6.24,0.813,13.088,3.378,18.89c0.234,0.527,0.899,0.007,0.769-0.44
						c-1.775-6.151-2.75-12.228-3.454-18.586C15.053,54.504,14.379,54.69,14.415,55.142L14.415,55.142z"/>
				</g>
				<g>
					<path fill="#EE6557" d="M19.009,50.909c0.004,3.99,1.117,7.817,1.454,11.777c0.331,3.894,0.259,7.847,1.816,11.498
						c0.243,0.571,1.001,0.052,0.86-0.445c-0.925-3.286-1.32-6.495-1.554-9.895c-0.305-4.416-1.66-8.669-1.727-13.096
						C19.848,50.116,19.009,50.361,19.009,50.909L19.009,50.909z"/>
				</g>
				<g>
					<path fill="#EE6557" d="M23.128,48.512c0.867,6.007,1.06,12.188,2.72,18.052c0.217,0.766,1.192,0.358,1.039-0.336
						c-1.311-5.924-1.913-11.927-2.94-17.898C23.843,47.736,23.05,47.975,23.128,48.512L23.128,48.512z"/>
				</g>
				<g>
					<path fill="#EE6557" d="M26.272,41.685c-0.115,3.892,0.635,7.694,0.726,11.572c0.083,3.499,0.217,7.023,1.469,10.322
						c0.241,0.634,1.057,0.075,0.935-0.459c-0.773-3.388-1.156-6.665-1.302-10.136c-0.16-3.829-1.025-7.575-1.073-11.417
						C27.021,40.998,26.286,41.201,26.272,41.685L26.272,41.685z"/>
				</g>
				<g>
					<path fill="#EE6557" d="M29.477,56.426c2.689-3.709,5.574-7.265,8.281-10.959c0.389-0.53-0.25-1.16-0.699-0.604
						c-2.88,3.573-5.537,7.345-8.139,11.124C28.632,56.404,29.155,56.871,29.477,56.426L29.477,56.426z"/>
				</g>
				<g>
					<path fill="#EE6557" d="M26.388,52.375c3.684-3.733,7-7.813,10.511-11.708c0.369-0.409-0.137-1.179-0.586-0.73
						c-3.725,3.727-6.763,8.07-10.312,11.957C25.755,52.163,26.096,52.671,26.388,52.375L26.388,52.375z"/>
				</g>
				<g>
					<path fill="#EE6557" d="M27.819,45.467c2.838-2.846,5.265-6.061,7.817-9.156c0.443-0.539-0.198-1.268-0.701-0.693
						c-2.649,3.033-4.948,6.347-7.755,9.245C26.746,45.311,27.356,45.932,27.819,45.467L27.819,45.467z"/>
				</g>
				<g>
					<path fill="#EE6557" d="M44.282,26.568c6.075-6.786,13.42-12.291,19.448-19.11c0.413-0.467-0.076-1.246-0.56-0.733
						c-6.266,6.642-13.384,12.447-19.331,19.389C43.555,26.446,43.968,26.918,44.282,26.568L44.282,26.568z"/>
				</g>
				<g>
					<path fill="#EE6557" d="M47.177,28.455c6.495-5.69,12.768-11.622,19.288-17.286c0.548-0.476-0.05-1.276-0.646-0.794
						c-6.709,5.424-12.771,11.631-18.997,17.589C46.565,28.21,46.878,28.717,47.177,28.455L47.177,28.455z"/>
				</g>
				<g>
					<path fill="#EE6557" d="M51.08,14.288c3.005-3.092,5.567-6.572,9.23-8.948c0.45-0.292,0.119-1.121-0.399-0.815
						c-3.861,2.278-6.327,5.986-9.281,9.241C50.316,14.112,50.726,14.651,51.08,14.288L51.08,14.288z"/>
				</g>
				<g>
					<path fill="#EE6557" d="M56.833,66.011c4.655,0.445,9.5,0.06,14.142-0.411c0.548-0.056,0.692-1.195,0.092-1.237
						c-4.701-0.336-9.394,0.911-14.12,0.714C56.518,65.059,56.384,65.968,56.833,66.011L56.833,66.011z"/>
				</g>
				<g>
					<path fill="#EE6557" d="M53.957,61.463c5.263-1.215,10.556-0.91,15.884-1.434c0.505-0.05,0.635-1.108,0.082-1.134
						c-5.348-0.253-10.897,0.18-16.041,1.701C53.498,60.71,53.507,61.566,53.957,61.463L53.957,61.463z"/>
				</g>
				<g>
					<path fill="#EE6557" d="M50.955,56.407c4.29-0.378,8.6-0.422,12.888-0.792c0.559-0.048,0.687-1.109,0.065-1.083
						c-4.336,0.181-8.661,0.502-12.947,1.197C50.646,55.78,50.593,56.439,50.955,56.407L50.955,56.407z"/>
				</g>
				<g>
					<path fill="#EE6557" d="M48.626,52.349c4.174-1.149,8.304-1.83,12.646-1.695c0.567,0.018,0.724-0.998,0.115-1.069
						c-4.414-0.519-8.674,0.596-12.835,1.984C48.155,51.701,48.142,52.482,48.626,52.349L48.626,52.349z"/>
				</g>
				<g>
					<path fill="#EE6557" d="M44.6,49.338c3.696-1.385,7.557-1.817,11.415-2.513c0.496-0.09,0.563-1.135-0.009-1.074
						C52,46.184,48.079,47.034,44.37,48.635C43.96,48.811,44.129,49.515,44.6,49.338L44.6,49.338z"/>
				</g>
				<g>
					<path fill="#EE6557" d="M40.773,46.518c4.196-2.265,8.836-2.863,13.352-4.173c0.581-0.169,0.704-1.3-0.029-1.154
						c-4.668,0.936-9.44,2.102-13.54,4.603C40.187,46.019,40.309,46.77,40.773,46.518L40.773,46.518z"/>
				</g>
				<g>
					<path fill="#EE6557" d="M40.853,43.079c2.736-2.567,6.334-3.747,9.875-4.732c0.552-0.154,0.666-1.198-0.029-1.085
						c-3.819,0.626-7.634,2.409-10.298,5.253C40.11,42.828,40.497,43.414,40.853,43.079L40.853,43.079z"/>
				</g>
			</g>
		</g>
	</g>
</g>
<g id="yes" display="none">
	<g id="Layer_2" display="inline">
		<g>
			<g>
				<path fill="#16A6B6" d="M16.771,37.581c-2.703,2.476-6.048,3.479-9.162,5.274c-0.294,0.17-0.356,0.631-0.134,0.876
					c4.578,5.057,7.936,11.385,11.19,17.337c1.315,2.406,2.608,4.84,3.71,7.352c0.814,1.854,7.552,1.68,9.425,1.714
					c0.375,0.007,0.648-0.257,0.732-0.614C38.007,46.452,57.416,29.5,74.884,14.946c0.398-0.332,0.592-1.139-0.079-1.305
					c-5.26-1.299-10.929-3.737-16.394-3.954c-1.085-0.043-3.516-0.295-4.34,0.546c-2.309,2.357-4.381,4.905-6.359,7.543
					c-8.336,11.121-15.542,23.969-20.045,37.143c0.432-0.115,0.865-0.231,1.298-0.347c-3.858-5.721-6.883-11.974-11.399-17.233
					c-0.581-0.677-1.526,0.471-1.011,1.109c4.299,5.321,7.36,11.385,11.168,17.038c0.411,0.609,1.103,0.226,1.298-0.347
					c4.29-12.58,11.239-24.717,18.967-35.481c1.605-2.235,3.325-4.384,5.142-6.449c1.676-1.904,3.094-2.158,5.545-1.968
					c5.264,0.407,10.619,2.562,15.711,3.817c-0.026-0.435-0.053-0.87-0.079-1.305c-16.429,13.734-33.811,28.99-41.268,49.694
					c-0.751,2.085-0.605,5.424-3.284,5.219c-2.017-0.154-5.869-0.03-6.779-2.002c-1.705-3.697-3.757-7.247-5.81-10.758
					c-2.171-3.715-4.475-7.366-7.072-10.799c-0.454-0.6-0.939-1.173-1.431-1.742c0.036,0.042,3.676-1.745,4.08-1.927
					c1.756-0.793,3.214-1.92,4.607-3.233C17.792,37.792,17.244,37.147,16.771,37.581L16.771,37.581z"/>
			</g>
			<g>
				<g>
					<path fill="#16A6B6" d="M32.423,69.763C38.883,49.1,54.317,34.284,71.336,21.848c0.552-0.404,0.096-1.114-0.499-0.775
						c-4.406,2.514-8.139,6.129-11.958,9.43c-4.387,3.792-8.538,7.509-12.291,11.956C40.065,50.187,34.2,59.681,31.883,69.628
						C31.797,69.996,32.314,70.111,32.423,69.763L32.423,69.763z"/>
				</g>
				<g>
					<path fill="#16A6B6" d="M72.413,20.235c1.488-1.958,1.595-4.498,2.597-6.689c0.207-0.453-0.48-0.568-0.688-0.212
						c-1.193,2.042-0.943,4.585-2.343,6.545C71.734,20.221,72.152,20.578,72.413,20.235L72.413,20.235z"/>
				</g>
				<g>
					<path fill="#16A6B6" d="M67.264,24.585c0.972-1.555,2.074-3.185,2.693-4.92c0.185-0.52-0.421-0.68-0.672-0.249
						c-0.926,1.587-1.628,3.319-2.498,4.941C66.618,24.672,67.087,24.869,67.264,24.585L67.264,24.585z"/>
				</g>
				<g>
					<path fill="#16A6B6" d="M63.655,26.467c0.638-1.191,1.415-2.281,2.117-3.431c0.298-0.489-0.416-0.837-0.729-0.408
						c-0.818,1.12-1.48,2.387-2.076,3.637C62.725,26.773,63.426,26.897,63.655,26.467L63.655,26.467z"/>
				</g>
				<g>
					<path fill="#16A6B6" d="M58.953,30.697c0.884-0.905,1.699-1.871,2.357-2.954c0.302-0.496-0.306-0.932-0.632-0.438
						c-0.673,1.023-1.35,2.043-2.077,3.029C58.413,30.59,58.706,30.95,58.953,30.697L58.953,30.697z"/>
				</g>
				<g>
					<path fill="#16A6B6" d="M53.182,35.978c0.518-0.619,0.969-1.275,1.379-1.969c0.242-0.41-0.274-0.765-0.526-0.351
						c-0.404,0.663-0.787,1.337-1.251,1.961C52.578,35.896,52.946,36.26,53.182,35.978L53.182,35.978z"/>
				</g>
				<g>
					<path fill="#16A6B6" d="M35.666,40.405c3.746-6.6,7.183-13.471,12.241-19.196c0.296-0.334-0.159-0.699-0.456-0.374
						c-5.139,5.642-8.513,12.685-12.114,19.343C35.198,40.436,35.516,40.67,35.666,40.405L35.666,40.405z"/>
				</g>
				<g>
					<path fill="#16A6B6" d="M48.23,20.839c2.4-3.577,5.229-6.644,8.119-9.817c0.227-0.249-0.095-0.518-0.329-0.289
						c-3.056,2.997-5.758,6.311-8.109,9.885C47.748,20.865,48.064,21.086,48.23,20.839L48.23,20.839z"/>
				</g>
				<g>
					<path fill="#16A6B6" d="M46.588,21.796c0.598-0.707,1.197-1.412,1.727-2.173c0.189-0.272-0.149-0.525-0.348-0.258
						c-0.555,0.747-1.13,1.475-1.719,2.195C46.045,21.809,46.388,22.034,46.588,21.796L46.588,21.796z"/>
				</g>
				<g>
					<path fill="#16A6B6" d="M22.523,68.604c0.04,0.452,0.117,0.885,0.128,1.339c0.002,0.111,0.078,0.204,0.179,0.24
						c1.663,0.59,3.379,0.22,5.097,0.148c1.352-0.056,2.85,0.721,4.131,0.042c0.31-0.165,0.296-0.844-0.133-0.68
						c-1.214,0.465-2.601-0.111-3.865-0.126c-1.625-0.019-4.721,1.142-5.034-1.094C22.976,68.117,22.495,68.302,22.523,68.604
						L22.523,68.604z"/>
				</g>
				<g>
					<path fill="#16A6B6" d="M7.6,43.457c-0.16,0.053-0.32,0.105-0.48,0.158c-0.145,0.048-0.229,0.247-0.16,0.383
						c2.273,4.468,5.558,8.359,8.219,12.597c2.654,4.228,4.612,8.956,6.512,13.557c0.222,0.537,0.839,0.062,0.653-0.387
						c-1.942-4.691-3.983-9.351-6.585-13.719C15.143,55.01,7.54,43.939,7.681,43.872C7.899,43.77,7.884,43.363,7.6,43.457
						L7.6,43.457z"/>
				</g>
				<g>
					<path fill="#16A6B6" d="M22.433,70.274c-0.027-0.314-0.054-0.629-0.076-0.944c-0.029-0.409,0.008-0.835-0.074-1.237
						c-0.079-0.387-0.471-0.296-0.533,0.046c-0.13,0.719,0.11,1.549,0.23,2.259C22.043,70.776,22.462,70.603,22.433,70.274
						L22.433,70.274z"/>
				</g>
				<g>
					<path fill="#16A6B6" d="M21.493,68.273c0.021-0.914-0.019-1.829-0.157-2.734c-0.067-0.441-0.558-0.249-0.531,0.135
						c0.061,0.881,0.191,1.756,0.225,2.639C21.043,68.644,21.486,68.58,21.493,68.273L21.493,68.273z"/>
				</g>
				<g>
					<path fill="#16A6B6" d="M13.669,52.849c-0.167-0.576-0.056-1.11,0.016-1.689c0.053-0.426-0.472-0.431-0.55-0.047
						c-0.132,0.65-0.144,1.37,0.225,1.945C13.483,53.251,13.719,53.019,13.669,52.849L13.669,52.849z"/>
				</g>
				<g>
					<path fill="#16A6B6" d="M12.046,50.139c0.013-0.35,0.018-0.687-0.087-1.023c-0.118-0.377-0.58-0.056-0.502,0.256
						c0.071,0.285,0.089,0.577,0.101,0.87C11.574,50.623,12.034,50.446,12.046,50.139L12.046,50.139z"/>
				</g>
				<g>
					<path fill="#16A6B6" d="M10.792,48.325c0.089-0.337,0.185-0.668,0.349-0.977c0.127-0.24-0.18-0.481-0.344-0.238
						c-0.242,0.356-0.344,0.748-0.444,1.162C10.272,48.608,10.713,48.624,10.792,48.325L10.792,48.325z"/>
				</g>
				<g>
					<path fill="#16A6B6" d="M13.579,39.94c0.87-1.019,2.123-1.521,3.323-2.033c0.162-0.069,0.154-0.342-0.051-0.279
						c-1.256,0.385-2.623,1.143-3.418,2.21C13.362,39.933,13.506,40.025,13.579,39.94L13.579,39.94z"/>
				</g>
				<g>
					<path fill="#16A6B6" d="M7.324,43.186c2.343-1.816,4.969-3.173,7.544-4.62c0.154-0.087,0.056-0.312-0.101-0.224
						c-2.596,1.455-5.226,2.839-7.566,4.694C7.087,43.126,7.21,43.274,7.324,43.186L7.324,43.186z"/>
				</g>
				<g>
					<path fill="#16A6B6" d="M70.853,21.838c0.608-0.547,1.184-1.133,1.656-1.802c0.111-0.158-0.083-0.324-0.202-0.165
						c-0.48,0.642-0.997,1.242-1.575,1.797C70.628,21.768,70.732,21.947,70.853,21.838L70.853,21.838z"/>
				</g>
				<g>
					<path fill="#16A6B6" d="M70.089,21.943c0.547-0.54,1.133-1.037,1.672-1.584c0.434-0.44,1.004-1.024,1.097-1.662
						c0.03-0.205-0.252-0.198-0.331-0.059c-0.34,0.603-0.675,1.12-1.154,1.628c-0.482,0.511-1.012,0.981-1.458,1.525
						C69.804,21.929,69.965,22.065,70.089,21.943L70.089,21.943z"/>
				</g>
			</g>
		</g>
	</g>
</g>
</svg>
