<?xml version="1.0" encoding="utf-8"?>
<!-- Generator: Adobe Illustrator 17.0.0, SVG Export Plug-In . SVG Version: 6.00 Build 0)  -->
<!DOCTYPE svg PUBLIC "-//W3C//DTD SVG 1.1//EN" "http://www.w3.org/Graphics/SVG/1.1/DTD/svg11.dtd">
<svg version="1.1" xmlns="http://www.w3.org/2000/svg" xmlns:xlink="http://www.w3.org/1999/xlink" x="0px" y="0px" width="100px"
	 height="100px" viewBox="0 0 100 100" enable-background="new 0 0 100 100" xml:space="preserve">
<g id="Layer_1">
	<g>
		<g>
			<circle fill="#E0FAFF" stroke="#BA4949" stroke-width="3" cx="50.027" cy="50.345" r="48.027"/>
			<path fill="#E0FAFF" stroke="#BA4949" stroke-width="3" d="M50.027,95.878c-12.162,0-23.596-4.737-32.196-13.336
				c-8.6-8.6-13.336-20.035-13.336-32.197s4.736-23.596,13.336-32.197c8.6-8.599,20.034-13.336,32.196-13.336
				c12.163,0,23.597,4.736,32.197,13.336c8.599,8.601,13.336,20.035,13.336,32.197s-4.737,23.597-13.336,32.197
				C73.624,91.141,62.19,95.878,50.027,95.878L50.027,95.878z"/>
		</g>
	</g>
</g>
<g id="Layer_2">
	<path fill-rule="evenodd" clip-rule="evenodd" fill="#16A6B6" d="M50.476,20.852c-16.96,0-26.264,8.507-27.369,21.843
		c1.06-0.613,2.306-1.013,3.723-1.174c2.202-10.022,10.472-13.895,23.646-13.895c13.169,0,21.438,3.869,23.645,13.881
		c1.418,0.152,2.663,0.549,3.724,1.162C76.73,29.349,67.424,20.852,50.476,20.852L50.476,20.852z"/>
	<path fill-rule="evenodd" clip-rule="evenodd" fill="#EE6557" d="M50.477,79.84c-8.927-5.112-15.724-12.028-19.105-18.688V45.426
		c4.351-5.45,13.696-6.473,19.105,4.72c5.409-11.192,14.754-10.17,19.105-4.72l0.001,15.725
		C66.201,67.811,59.406,74.727,50.477,79.84"/>
	<path fill-rule="evenodd" clip-rule="evenodd" fill="#16A6B6" d="M28.132,45.152c-2.345-0.085-7.714,0.46-7.713,7.995
		c0.001,7.535,5.368,8.08,7.712,7.994L28.132,45.152L28.132,45.152z"/>
	<path fill-rule="evenodd" clip-rule="evenodd" fill="#16A6B6" d="M72.823,45.152c2.344-0.085,7.713,0.46,7.712,7.995
		c-0.001,7.535-5.368,8.08-7.712,7.994V45.152L72.823,45.152z"/>
</g>
</svg>
