<?xml version="1.0" encoding="utf-8"?>
<!-- Generator: Adobe Illustrator 17.0.0, SVG Export Plug-In . SVG Version: 6.00 Build 0)  -->
<!DOCTYPE svg PUBLIC "-//W3C//DTD SVG 1.1//EN" "http://www.w3.org/Graphics/SVG/1.1/DTD/svg11.dtd">
<svg version="1.1" id="Layer_1" xmlns="http://www.w3.org/2000/svg" xmlns:xlink="http://www.w3.org/1999/xlink" x="0px" y="0px"
	 width="400px" height="400px" viewBox="0 0 400 400" enable-background="new 0 0 400 400" xml:space="preserve">
<g>
	<g>
		<path fill="#16A6B6" d="M285.418,59.621c-59.333,4.438-117.936,16.557-177.132,22.574c-5.561,0.565-4.021,9.101,1.506,8.531
			c59.186-6.108,117.727-17.769,176.908-23.826C291.485,66.411,290.096,59.27,285.418,59.621L285.418,59.621z"/>
	</g>
</g>
<g>
	<g>
		<path fill="#16A6B6" d="M289.722,62.257c-0.336-0.764-0.791-1.359-1.364-1.964c-1.664-1.766-4.405,0.524-2.881,2.443
			c0.344,0.346,0.572,0.748,0.682,1.211C286.96,66.304,290.758,64.629,289.722,62.257L289.722,62.257z"/>
	</g>
</g>
<g>
	<g>
		<path fill="#16A6B6" d="M282.965,63.805c4.688,35.182,11.957,70.368,19.573,105.031c6.505,29.593,12.338,64.703,29.741,90.275
			c2.593,3.812,9.294-0.499,6.81-4.403c-17.143-26.946-22.63-63.252-29.616-93.939c-7.411-32.55-12.778-65.528-20.319-98.052
			C288.241,58.771,282.428,59.779,282.965,63.805L282.965,63.805z"/>
	</g>
</g>
<g>
	<g>
		<path fill="#16A6B6" d="M105.672,88.181c1.751,45.107,6.36,88.376,15.674,132.521c5.136,24.335,11.308,76.191,35.973,90.29
			c4.479,2.56,9.159-3.899,4.652-6.647c-11.934-7.279-16.563-28.458-20.411-40.73c-5.731-18.288-9.814-37.126-13.687-55.877
			c-8.236-39.875-11.43-79.271-14.074-119.883C113.504,83.249,105.494,83.574,105.672,88.181L105.672,88.181z"/>
	</g>
</g>
<g>
	<g>
		<path fill="#16A6B6" d="M94.943,91.82c3.011,74.099,14.102,146.488,31.339,218.643c1.204,5.049,9.058,3.746,7.986-1.405
			c-15.061-72.476-26.223-143.755-31.196-217.564C102.761,86.893,94.755,87.213,94.943,91.82L94.943,91.82z"/>
	</g>
</g>
<g>
	<g>
		<path fill="#16A6B6" d="M333.607,252.697c-65.485,27.139-133.25,45.534-203.475,54.839c-5.653,0.748-4.093,9.421,1.532,8.694
			c70.974-9.213,139.63-27.964,205.521-56C342.141,258.123,338.559,250.646,333.607,252.697L333.607,252.697z"/>
	</g>
</g>
<g>
	<g>
		<path fill="#16A6B6" d="M264.051,83.925c11.155-2.173,9.391-21.856,7.419-29.913c-1.619-6.602-9.544-11.091-15.98-8.011
			c-8.432,4.031-8.213,13.778-6.166,21.662c1.448,5.574,10.317,4.057,8.856-1.557c-0.728-2.79-2.995-10.755,1.094-11.941
			c3.497-1.018,3.744,3.12,4.011,5.339c0.43,3.532,1.598,15.041-1.69,16.731C257.577,78.306,259.432,84.826,264.051,83.925
			L264.051,83.925z"/>
	</g>
</g>
<g>
	<g>
		<path fill="#16A6B6" d="M140.029,103.45c11.938-2.809,8.788-23.943,6.266-32.458c-2.362-7.976-9.841-11.249-17.349-7.894
			c-8.595,3.843-9.106,14.725-6.775,22.507c1.644,5.487,10.521,3.986,8.857-1.557c-1.252-4.169-2.299-9.34,1.341-12.547
			c4.306-3.798,5.599,2.85,6.065,5.563c0.575,3.36,3.046,16.614-0.861,18.696C133.667,97.841,135.377,104.545,140.029,103.45
			L140.029,103.45z"/>
	</g>
</g>
<g>
	<g>
		<path fill="#16A6B6" d="M173.898,98.126c11.814-2.769,8.971-23.485,6.469-31.98c-2.344-7.956-9.841-11.04-17.27-7.721
			c-8.5,3.802-9.195,14.466-6.897,22.227c1.629,5.497,10.503,3.99,8.856-1.557c-1.232-4.148-2.164-9.116,1.46-12.272
			c4.281-3.731,5.497,2.571,5.953,5.304c0.562,3.38,2.868,16.222-1.028,18.309C167.546,92.527,169.241,99.215,173.898,98.126
			L173.898,98.126z"/>
	</g>
</g>
<g>
	<g>
		<path fill="#16A6B6" d="M205.534,92.237c11.531-2.672,9.366-22.457,6.943-30.906c-2.445-8.521-11.304-11.025-18.52-6.434
			c-7.017,4.464-7.933,13.249-5.762,20.681c1.611,5.502,10.485,4.001,8.856-1.557c-1.201-4.098-1.985-9.264,2.176-11.916
			c4.123-2.626,4.84,2.255,5.263,5.009c0.527,3.425,2.451,15.331-1.412,17.433C199.202,86.659,200.859,93.321,205.534,92.237
			L205.534,92.237z"/>
	</g>
</g>
<g>
	<g>
		<path fill="#16A6B6" d="M237.272,87.804c11.559-2.698,9.333-22.558,6.897-31.023c-2.453-8.52-11.302-11.08-18.538-6.474
			c-7.034,4.484-7.909,13.315-5.731,20.751c1.614,5.502,10.488,3.996,8.857-1.557c-1.204-4.098-2.026-9.32,2.143-11.982
			c4.135-2.636,4.866,2.306,5.293,5.065c0.53,3.425,2.494,15.423-1.377,17.53C230.946,82.225,232.598,88.893,237.272,87.804
			L237.272,87.804z"/>
	</g>
</g>
<g>
	<g>
		<path fill="#16A6B6" d="M107.243,82.678c-3.856,2.194-8.241,3.945-10.882,7.66c-1.682,2.372,0.471,5.487,3.235,5.074
			c4.146-0.616,7.688-3.105,11.241-5.171C115.45,87.554,111.956,79.991,107.243,82.678L107.243,82.678z"/>
	</g>
</g>
<g>
	<g>
		<path fill="#16A6B6" d="M169.561,143.819c16.402,0.667,33.515-4.937,49.848-6.999c17.499-2.209,34.708-4.454,51.95-8.297
			c4.469-0.992,3.298-7.899-1.237-7.024c-33.52,6.469-67.279,10.709-100.761,17.382
			C166.673,139.416,166.675,143.696,169.561,143.819L169.561,143.819z"/>
	</g>
</g>
<g>
	<g>
		<path fill="#16A6B6" d="M177.033,179.117c32.952-1.679,66.032-10.165,98.567-15.484c4.715-0.768,3.4-7.798-1.278-7.248
			c-32.565,3.832-66.434,9.513-98.119,18.018C173.173,175.218,173.982,179.275,177.033,179.117L177.033,179.117z"/>
	</g>
</g>
<g>
	<g>
		<path fill="#16A6B6" d="M185.798,219.205c31.496-4.458,64.805-8.678,95.248-18.156c4.581-1.43,3.545-8.775-1.329-7.543
			c-31.278,7.94-63.591,12.109-95.202,18.42C179.833,212.858,181.082,219.877,185.798,219.205L185.798,219.205z"/>
	</g>
</g>
<g>
	<g>
		<path fill="#16A6B6" d="M196.207,260.469c33.253-5.023,65.456-15.168,97.961-23.536c5.237-1.344,3.866-9.62-1.471-8.337
			c-32.703,7.854-64.708,18.135-97.869,24.045C189.774,253.542,191.147,261.233,196.207,260.469L196.207,260.469z"/>
	</g>
</g>
<g>
	<g>
		<path fill="#16A6B6" d="M138.96,144.613c2.265,6.001,7.505,9.325,13.155,11.773c2.504,1.084,5.866-0.952,5.927-3.726
			c0.186-8.194,0.336-17.005,2.932-24.854c1.369-4.143-4.576-7.665-6.984-3.66c-4.881,8.119-4.713,18.497-4.739,27.679
			c1.975-1.242,3.952-2.484,5.928-3.726c-3.889-1.593-6.65-3.41-8.803-7.009C143.669,136.56,137.077,139.619,138.96,144.613
			L138.96,144.613z"/>
	</g>
</g>
<g>
	<g>
		<path fill="#16A6B6" d="M141.681,182.996c2.272,6.006,7.505,9.319,13.16,11.768c2.502,1.084,5.866-0.947,5.927-3.721
			c0.181-8.327,0.244-17.387,2.896-25.363c1.376-4.143-4.584-7.665-6.984-3.66c-4.942,8.241-4.683,18.879-4.703,28.188
			c1.975-1.242,3.952-2.478,5.927-3.72c-3.894-1.599-6.653-3.41-8.808-7.014C146.389,174.943,139.793,178.003,141.681,182.996
			L141.681,182.996z"/>
	</g>
</g>
<g>
	<g>
		<path fill="#16A6B6" d="M152.217,223.618c2.316,6.011,7.475,9.289,13.157,11.763c2.489,1.079,5.871-0.952,5.92-3.72
			c0.155-8.587-0.351-18.217,2.351-26.473c1.351-4.133-4.614-7.701-6.983-3.66c-5.032,8.582-4.159,19.703-4.148,29.298
			c1.972-1.237,3.947-2.479,5.919-3.72c-3.878-1.599-6.665-3.4-8.801-7.009C156.948,215.556,150.298,218.64,152.217,223.618
			L152.217,223.618z"/>
	</g>
</g>
<g>
	<g>
		<path fill="#16A6B6" d="M163.306,266.053c2.265,6.006,7.508,9.325,13.158,11.773c2.504,1.084,5.866-0.952,5.929-3.726
			c0.186-8.103,0.446-16.741,3.021-24.498c1.377-4.148-4.565-7.65-6.983-3.66c-4.851,8.011-4.805,18.237-4.833,27.323
			c1.977-1.242,3.955-2.484,5.93-3.726c-3.889-1.593-6.65-3.41-8.805-7.009C168.012,258.001,161.422,261.06,163.306,266.053
			L163.306,266.053z"/>
	</g>
</g>
</svg>
