<?xml version="1.0" encoding="utf-8"?>
<!-- Generator: Adobe Illustrator 17.0.0, SVG Export Plug-In . SVG Version: 6.00 Build 0)  -->
<!DOCTYPE svg PUBLIC "-//W3C//DTD SVG 1.1//EN" "http://www.w3.org/Graphics/SVG/1.1/DTD/svg11.dtd">
<svg version="1.1" xmlns="http://www.w3.org/2000/svg" xmlns:xlink="http://www.w3.org/1999/xlink" x="0px" y="0px" width="400px"
	 height="400px" viewBox="0 0 400 400" enable-background="new 0 0 400 400" xml:space="preserve">
<g id="phonograph">
	<path fill-rule="evenodd" clip-rule="evenodd" fill="#51656C" d="M324.787,292.788v-24.186
		c26.672,0.087,44.772-12.272,44.772-41.504v-36.481c0-10.915,7.086-15.92,15.757-15.903c14.388,0.035,13.429,17.112,5.42,17.112
		h-8.185C387.987,241.316,401.773,287.404,324.787,292.788L324.787,292.788z"/>
	<path fill-rule="evenodd" clip-rule="evenodd" fill="#51656C" d="M193.564,146.166c-0.315-0.737-0.62-1.485-0.918-2.234
		c-18.87-8.658-41.705-13.441-63.212-18.749c0.081-13.482,4.253-28.682,13.444-36.85c10.889,9.752,28.417,20.597,43.46,25.76
		c-0.023-0.591-0.041-1.181-0.053-1.771c-12.897-10.559-25.283-23.07-35.543-34.622c0-12.692,9.787-24.883,20.041-28.075
		c4.68,12.956,11.486,23.579,20.881,31.015c0.181-0.48,0.368-0.965,0.562-1.444c-6.057-10.641-8.893-22.538-10.77-34.781
		c4.233-6.414,13.529-7.635,20.609-6.402c16.002,4.414,20.626,17.504,22.754,32.6c2.877,20.369,2.426,62.749-15.797,100.354
		c-26.736-4.397-60.215-5.414-88.953,3.151c-2.753-12.277-0.295-26.712,6.446-35.564
		C142.414,138.975,170.476,141.887,193.564,146.166L193.564,146.166z"/>
	<path fill-rule="evenodd" clip-rule="evenodd" fill="#51656C" d="M235.471,97.08c14.306,26.273,36.23,45.619,59.306,59.721
		c5.981,8.863-1.584,28.963-11.727,31.67c-31.624-0.269-59.605,4.765-80.973,17.393C220.639,180.374,237.845,131.1,235.471,97.08
		L235.471,97.08z"/>
	<path fill-rule="evenodd" clip-rule="evenodd" fill="#51656C" d="M295.269,188.95c7.676-6.25,11.435-19.568,8.863-27.583
		c21.094,11.997,50.198,17.574,51.39,45.123c0.83,19.252-10.003,28.366-29.834,26.753l-32.103-2.607v-7.998l31.91-2.596
		c7.828-0.637,11.062-6.898,10.512-13.289C334.439,188.383,308.721,189.488,295.269,188.95L295.269,188.95z"/>
	<path fill-rule="evenodd" clip-rule="evenodd" fill="#51656C" d="M150.336,237.218c17.273-0.801,32.167-15.212,44.585-37.973
		c-22.17,4.759-45.67,12.026-62.557,26.782C133.425,232.792,143.364,237.984,150.336,237.218L150.336,237.218z"/>
	<path fill-rule="evenodd" clip-rule="evenodd" fill="#51656C" d="M125.483,216.802c21.413-17.487,53.191-22.783,73.747-25.169
		c1.584-2.315,4.63-9.705,6.887-13.587c-27.718-1.719-58.298-0.117-84.694,8.196C117.964,197.141,119.238,208.968,125.483,216.802
		L125.483,216.802z"/>
	<path fill-rule="evenodd" clip-rule="evenodd" fill="#51656C" d="M271.018,212.12c8.126,0,14.721,6.595,14.721,14.721
		c0,8.132-6.595,14.727-14.721,14.727c-8.132,0-14.721-6.594-14.721-14.727C256.296,218.715,262.885,212.12,271.018,212.12
		L271.018,212.12z"/>
	<path fill-rule="evenodd" clip-rule="evenodd" fill="#51656C" d="M331.575,339.771v-6.835c-10.097,0-2.905-18.79-18.2-18.79
		h-98.992c-15.294,0-8.103,18.79-18.2,18.79v6.835"/>
	<path fill-rule="evenodd" clip-rule="evenodd" fill="#51656C" d="M212.846,304.458h102.061V261.99c1.795,0,9.933-2.42,9.933-4.824
		V249.8H202.919v7.367c0,1.292,3.776,3.999,9.927,4.824V304.458L212.846,304.458z"/>
</g>
<g id="heart">
	<g id="Layer_3">
	</g>
	<path fill="#EE6557" d="M28.386,84.924c0-3.948-3.202-7.15-7.152-7.15c-2.542,0-4.773,1.327-6.04,3.327
		c-1.268-2-3.5-3.327-6.043-3.327C5.202,77.774,2,80.976,2,84.924c0,2.246,1.036,4.25,2.654,5.559l10.539,10.235l10.246-10.01
		C27.226,89.407,28.386,87.302,28.386,84.924z"/>
	<path fill="#EE6557" d="M64.339,159.125c0-3.948-3.202-7.15-7.152-7.15c-2.542,0-4.773,1.327-6.04,3.327
		c-1.268-2-3.5-3.327-6.043-3.327c-3.949,0-7.151,3.202-7.151,7.15c0,2.246,1.036,4.25,2.654,5.559l10.539,10.235l10.246-10.01
		C63.179,163.608,64.339,161.503,64.339,159.125z"/>
</g>
<g id="music_note">
	<g id="Layer_5">
	</g>
	<path fill="#51656C" d="M90.211,74.495l-2.139,0.653l-0.008-0.023l-16.645,5.457l0.054,0.163v18.803
		c-1.496-0.75-3.427-0.955-5.371-0.416c-3.61,0.998-5.888,4.155-5.087,7.049c0.801,2.895,4.376,4.432,7.986,3.436
		c3.293-0.911,5.469-3.619,5.218-6.284h0.029V86.047l13.189-4.325v13.163c-1.496-0.75-3.427-0.954-5.371-0.416
		c-3.61,0.997-5.887,4.153-5.087,7.05c0.8,2.895,4.376,4.432,7.984,3.435c3.295-0.911,5.47-3.618,5.22-6.283h0.028V74.495z"/>
</g>
</svg>
