<?xml version="1.0" encoding="utf-8"?>
<!-- Generator: Adobe Illustrator 17.0.0, SVG Export Plug-In . SVG Version: 6.00 Build 0)  -->
<!DOCTYPE svg PUBLIC "-//W3C//DTD SVG 1.1//EN" "http://www.w3.org/Graphics/SVG/1.1/DTD/svg11.dtd">
<svg version="1.1" xmlns="http://www.w3.org/2000/svg" xmlns:xlink="http://www.w3.org/1999/xlink" x="0px" y="0px" width="70px"
	 height="100px" viewBox="0 0 70 100" enable-background="new 0 0 70 100" xml:space="preserve">
<g id="bkg_top">
	<g id="Layer_6">
		<rect x="-22.544" y="0" fill-rule="evenodd" clip-rule="evenodd" fill="#16A6B6" width="485.013" height="113.49"/>
	</g>
</g>
<g id="bkg_bottom">
	<g id="Layer_8">
	</g>
	<g id="Layer_9">
		<rect x="-0.512" y="96.872" fill="#E0FAFF" width="28.512" height="3.128"/>
	</g>
	<g id="Layer_10">
	</g>
	<rect x="27.268" y="75.333" fill="#E0FAFF" width="380.339" height="24.667"/>
</g>
<g id="ribbon">
	<g id="Layer_4">
		<polygon fill="#E05A5A" points="69.312,36.929 69.312,96.872 -0.793,96.872 32.865,66.001 -1.191,36.923 		"/>
		<g>
			<polygon fill="#BA4949" points="69.312,78.549 69.312,96.827 47.305,78.549 			"/>
			<polygon fill="#BA4949" points="47.305,45.85 47.305,48.241 12.064,48.241 9.264,45.85 			"/>
			<polygon fill="#BA4949" points="58.63,87.954 8.928,87.954 11.534,85.566 55.753,85.566 			"/>
		</g>
		<rect x="47.308" y="18.8" fill="#EE6557" width="358.196" height="59.749"/>
		<rect x="47.308" y="27.629" fill="#BA4949" width="358.196" height="2.39"/>
		<rect x="47.308" y="67.343" fill="#BA4949" width="358.196" height="2.39"/>
	</g>
</g>
<g id="Layer_11">
</g>
<g id="circle" display="none">
</g>
<g id="heart" display="none">
</g>
</svg>
