<?xml version="1.0" encoding="utf-8"?>
<!-- Generator: Adobe Illustrator 17.0.0, SVG Export Plug-In . SVG Version: 6.00 Build 0)  -->
<!DOCTYPE svg PUBLIC "-//W3C//DTD SVG 1.1//EN" "http://www.w3.org/Graphics/SVG/1.1/DTD/svg11.dtd">
<svg version="1.1" xmlns="http://www.w3.org/2000/svg" xmlns:xlink="http://www.w3.org/1999/xlink" x="0px" y="0px" width="400px"
	 height="400px" viewBox="0 0 400 400" enable-background="new 0 0 400 400" xml:space="preserve">
<g id="wedding_cake">
	<g id="Layer_3">
	</g>
	<g>
		<polygon fill-rule="evenodd" clip-rule="evenodd" fill="#16A6B6" points="132.655,44.254 133,44.947 133.348,45.64 
			133.348,45.985 		"/>
		<path fill-rule="evenodd" clip-rule="evenodd" fill="#16A6B6" d="M135.079,32.134"/>
		<g>
			<path fill-rule="evenodd" clip-rule="evenodd" fill="#16A6B6" d="M95.254,93.081l2.426-5.886l3.116-7.966l1.731-4.155
				l1.038-6.925l1.04-4.157l0.345-1.731l0.347-1.385l0.693-0.345l-0.693-2.771l-0.347-3.464l-0.693-0.345l-0.693-0.345l-0.345-0.693
				v-1.733v-1.731v-0.345h-0.693l-0.345-0.348l-0.348-0.345v-1.386l1.038-3.464l1.733-5.195l2.076-4.5l1.386-2.426l1.733-1.383
				l1.038-0.347h1.038h1.386h1.386l1.038,0.693l1.04,0.693l0.693,1.038l1.038,1.733l1.73,3.462l1.386,3.809h0.348l0.345,2.424
				l-2.771,12.12h-0.345l-0.345,0.693l-1.041,2.771v0.345l1.041,2.424l0.69,2.426l1.733,5.54l1.038,4.847l1.038,4.502l2.078,4.502
				v0.348v-0.693l4.502,10.387l0,0l-0.345,1.386l-9.697,1.733l-12.468,0.691l-5.885-1.038l-5.543-1.731L95.254,93.081L95.254,93.081
				L95.254,93.081z M110.838,41.83h0.345l3.119,0.345l0.345,0.347c1.038-0.693,1.731-1.385,2.078-2.771v0.693l1.386-0.693v-1.731
				l-0.693-2.078l-1.04-2.076l-1.038-1.04l-1.038-0.345l-1.733-0.347h-1.386l-0.693,0.347l-1.038,0.693l-1.038,1.383l-0.348,1.386
				l-0.345,2.424v1.386l0,0l1.038,1.04l0,0l0.347-1.386C109.452,40.445,110.145,41.485,110.838,41.83L110.838,41.83L110.838,41.83z"
				/>
			<path fill-rule="evenodd" clip-rule="evenodd" fill="#16A6B6" d="M130.922,71.611l-0.691-7.271l0,0v0.693v1.038l-0.347,0.345
				l-0.345,0.348h-0.348l-0.345-0.348l0.345,1.386v0.348l0.348,0.345v0.693v1.038h-0.348l-0.693,0.348l-0.693-0.348l-0.693-0.345
				l-0.691-0.693v-1.386l-0.347-1.731l-0.345-1.731l0.345-1.386h-0.693v-0.348v-0.345l1.04-11.775l0.691-2.769l0.693-1.04
				l0.693-2.424l2.771-1.731l0,0l0,0l0.345-0.347h0.348l1.386-1.038h2.076c-1.038-1.386-2.076-3.809-2.076-6.233l0,0h-1.04
				l-4.155,0.345l0,0l1.038-0.693l1.731-0.345L133,33.867v-7.273l0.348-2.078l1.383-0.345l2.771-0.347l2.771,0.347l1.731,0.693
				l0.693,0.693l0.345,1.038l-1.038,7.619l0,0h0.345l3.464,1.038l1.038,0.693l-2.769-0.345h-1.733c0,3.809-1.731,6.925-4.155,6.925
				c-0.693,0-1.386-0.347-2.078-1.038c-2.424,5.54-1.038,9.002,1.733,14.197l0.691,2.078l0,0l0,0
				c1.04-3.464,2.426-9.004,2.771-12.813c0.348-1.731-1.038-3.116-0.693-3.462l3.464,1.038l2.769,2.079l1.04,2.424l0.345,0.693
				l1.04,3.117l0.69,11.773v0.348l0,0l-0.345,0.345v1.385v1.731l-0.345,1.733l-0.348,1.038l-0.345,1.038l-0.693,0.348H147.2h-0.693
				l-0.347-0.348v-0.691v-0.693v-0.348l0.347-0.693v-1.386l-0.347,0.693h-0.345l-0.345-0.345l-0.348-0.348v-1.038l0.348-0.693
				l-0.693-1.385l-0.348-0.345l0,0l0.348,6.58V95.16l5.192,2.424l-10.387-1.731l-2.079-12.12l-1.385,11.776l-10.735,1.731
				l5.195-2.424L130.922,71.611L130.922,71.611z M140.619,35.943l-3.809-0.345h-2.078c0,0.693,0,1.038,0,1.386
				c0.347,2.424,1.733,4.155,3.464,4.155c1.731,0,2.771-1.731,2.424-4.155C140.619,36.635,140.619,36.29,140.619,35.943z"/>
		</g>
		<path fill-rule="evenodd" clip-rule="evenodd" fill="#16A6B6" d="M48.157,170.999c-14.889,3.464-23.894,8.311-24.241,14.199l0,0
			l0,0c0,6.233,10.39,13.506,27.36,20.084c28.05,10.042,50.906,13.506,73.761,13.161c22.856,0,45.363-3.809,73.068-14.199
			c16.968-6.233,27.357-13.506,27.01-19.739l0,0l0,0c-0.345-5.888-9.695-10.735-24.587-14.199c0,1.04,0,2.424,0,3.464
			c0.348,5.886-7.963,12.466-21.817,17.661c-13.851,5.195-32.552,10.042-54.022,10.735c-21.125-0.345-40.864-4.847-54.715-10.042
			c-13.506-5.194-22.163-11.775-21.817-17.66C48.157,173.423,48.157,172.384,48.157,170.999L48.157,170.999z M169.362,118.708
			c2.424,0.693,4.502,1.04,6.925,1.733c14.544,3.117,23.896,8.656,23.896,15.928l0,0l0,0c0,1.04,0,2.078-0.693,3.119
			c0.345,3.462,0.345,5.885,0.345,7.619c0-0.693,0-1.386-0.345-2.078c-5.887,11.427-11.775,16.622-19.046,18.701
			c-7.619,1.731-18.353,1.038-26.667-2.771c-0.69-0.348-1.383-0.693-2.076-1.038c-0.348,0.691-1.04,1.038-1.386,1.731
			c-0.348,0-0.348,0-0.348,0.345c-8.656,8.659-16.968,11.082-25.279,11.082c-8.311,0.345-16.968-2.078-25.972-10.735v-0.347
			c-0.693-0.693-1.038-1.038-1.731-1.731c-0.693,0.345-1.386,0.693-2.078,1.038c-7.964,4.157-19.046,4.85-26.32,3.117
			c-7.619-2.076-13.504-7.271-19.739-19.046c0,1.04,0,2.079,0,2.771c0.348,5.195,1.733,9.697,3.464,13.506c0.345,0,0.345,0,0.345,0
			l0,0c0,0.345,0,0.345,0,0.345l0,0l0,0c0.348,0.347,0.348,0.347,0.348,0.347l0,0c0,0,0,0,0,0.345
			c0.345,0.348,0.345,0.693,0.693,1.04l0,0c0,0,0.345,0,0.345,0.345l0,0l0,0c0,0,0,0,0,0.345h0.348l0,0l0,0v0.348l0,0h0.345l0,0
			c0,0.345,0,0.345,0,0.345l0,0l0,0h0.348c0,0.348,0,0.348,0,0.348l0,0l0,0l0,0c0,0.345,0.345,0.345,0.345,0.345l0,0l0,0
			c0,0,0,0,0,0.347h0.345l0,0l0,0l0,0c0,0.345,0.347,0.345,0.347,0.345l0,0c0,0,0,0,0,0.348l0,0c0,0,0,0,0.345,0l0,0l0,0
			c0,0.345,0,0.345,0,0.345s0,0,0.348,0l0,0l0,0v0.347c0.345,0,0.345,0,0.345,0l0,0l0,0c0.348,0.345,0.693,0.691,1.041,0.691
			c0,0.347,0,0.347,0,0.347l0,0c0,0,0,0,0.345,0c0,0,0,0,0,0.345c2.079,1.386,4.847,2.771,7.619,3.464
			c11.082,2.771,22.856-2.078,30.129-7.618c5.888,9.004,15.582,17.315,28.395,17.66c12.813-0.345,22.51-9.004,28.05-18.008
			c7.273,5.542,19.046,10.045,30.129,7.273c2.769-0.693,5.54-2.078,7.619-3.464l0,0c5.54-4.5,8.656-11.428,9.349-20.43
			c0.348,9.002,0,5.54,0.348,13.851c20.084,4.502,32.55,12.12,33.243,22.163l0,0l0,0c0,1.386,0,2.771-0.345,4.155
			c0,5.195,0.345,9.004,0.693,11.775c-0.348-1.038-0.348-2.078-0.348-3.464c-7.964,17.663-15.93,25.626-26.665,29.091
			c-10.735,3.116-28.05,6.578-39.823,1.038c-1.038-0.693-2.079-1.038-3.117-1.386c-0.693,0.693-1.386,1.386-2.424,2.424
			c0,0.348-0.348,0.348-0.348,0.348c-12.12,13.158-24.586,16.968-37.054,16.968c-12.12,0.348-24.586-3.462-37.399-16.275
			c0-0.348,0-0.348-0.345-0.693c-0.693-0.693-1.386-1.386-2.078-2.424c-1.038,0.693-2.079,1.038-3.117,1.385
			c-11.775,5.886-26.32,2.769-37.054-0.347c-10.735-3.117-19.046-11.428-27.357-29.088c0,1.386-0.347,2.769-0.347,4.155
			c1.04,18.353,7.966,31.859,23.896,36.709c15.93,4.847,31.859,1.731,42.595-6.235c8.311,13.506,22.51,26.32,41.556,26.665
			c18.699-0.345,32.897-13.504,40.864-27.357c10.735,7.966,29.433,10.737,45.363,5.888c15.93-5.195,22.51-18.699,23.203-36.362
			c1.385,17.315,0.345,2.426,3.462,38.093c0.693,8.659-10.735,19.739-30.474,29.09c-20.084,9.35-48.827,16.275-81.032,16.968
			c-31.859-0.345-60.95-6.58-81.382-15.582c-20.084-9.351-31.859-20.432-31.167-28.743c0.693-8.659,1.386-17.315,1.733-25.972
			c0.693-8.659,1.038-17.315,1.383-25.974c-0.691-1.383-0.691-2.769-0.691-4.154l0,0l0,0c0.345-10.042,12.811-17.661,32.55-22.163
			c0-7.273,0-14.891,0-22.163c-0.345-1.04-0.691-2.426-0.691-3.464l0,0l0,0c0-6.925,9.002-12.466,23.548-15.93
			c2.424-0.345,4.502-1.038,6.926-1.386c0-5.54,0-11.08,0-16.622c-0.693-1.038-0.693-1.731-0.693-2.769l0,0l0,0
			c-0.348-5.195,5.195-9.697,14.197-12.468c8.311-2.424,19.394-4.155,31.859-4.155l0,0l0,0c12.468,0,23.896,1.386,32.207,3.809
			c8.656,2.769,14.199,6.926,14.199,12.12l0,0l0,0c0,1.038,0,2.076-0.347,3.117C169.362,108.32,169.362,110.051,169.362,118.708
			L169.362,118.708z M168.669,111.782l0.348-4.847c-3.117,4.847-7.966,10.735-11.428,11.773c-4.502,1.04-11.43,0.347-15.93-2.424
			c-0.693-0.345-1.04-0.345-1.386-0.693c-0.347,0.348-0.693,0.693-1.04,1.04c0,0.345,0,0.345,0,0.345
			c-5.193,6.233-10.387,7.964-15.237,7.619c-5.192,0.345-10.387-1.386-15.582-7.619l0,0c-0.348-0.345-0.693-0.693-1.04-1.386
			c-0.345,0.348-1.038,0.693-1.383,1.04c-4.502,2.769-11.428,3.809-15.93,2.424c-4.502-1.04-7.966-4.85-11.776-12.813
			c0,0.345,0,1.038-0.345,1.731c1.038,9.004,4.502,15.237,11.08,16.968c6.58,1.733,13.506-2.076,18.008-5.886
			c3.461,6.233,9.35,12.121,16.968,12.466c7.619-0.345,13.161-6.233,16.623-12.813c4.502,3.809,11.428,7.619,18.008,5.888
			C164.515,122.864,167.283,118.363,168.669,111.782L168.669,111.782z M77.941,125.288c-1.733,0.345-3.464,0.693-5.195,1.038
			c-11.776,2.771-19.046,6.58-19.046,10.735l0,0l0,0c0,4.157,7.619,8.659,19.392,12.813c29.09,9.004,72.723,8.659,101.811-0.693
			c11.776-3.809,19.046-8.311,19.046-12.466l0,0l0,0c0-4.157-7.271-7.966-19.392-10.735c-1.731-0.348-3.464-0.693-5.194-1.04
			c0,0.347,0,1.04,0,1.386c0.347,8.311-19.739,14.892-45.018,15.584c-25.281-0.348-46.059-6.581-46.403-14.892
			C77.941,126.326,77.941,125.981,77.941,125.288L77.941,125.288z M123.304,87.889L123.304,87.889L123.304,87.889
			c-12.12,0-22.856,1.731-30.474,4.154c-7.271,2.424-11.428,5.195-11.428,7.966l0,0l0,0c0,2.769,4.502,5.885,11.428,8.311
			c7.966,2.769,18.701,4.502,30.821,4.502l0,0l0,0c11.773-0.347,22.855-2.078,30.474-4.85c7.273-2.424,11.428-5.54,11.428-8.311l0,0
			l0,0c0-3.116-4.155-5.888-11.428-7.963C146.159,89.272,135.424,87.889,123.304,87.889z"/>
		<polygon fill-rule="evenodd" clip-rule="evenodd" fill="#16A6B6" points="169.017,105.202 168.669,120.094 151.354,129.097 
			121.573,134.638 86.944,130.136 77.941,114.553 77.941,103.819 92.485,112.13 123.651,115.591 146.159,112.822 		"/>
	</g>
</g>
<g id="notepad">
	<g>
		<g>
			<path fill="#51656C" d="M356.304,177.406c-32.103,2.401-63.812,8.959-95.841,12.214c-3.009,0.306-2.176,4.924,0.815,4.616
				c32.024-3.305,63.699-9.614,95.72-12.892C359.586,181.08,358.835,177.216,356.304,177.406L356.304,177.406z"/>
		</g>
	</g>
	<g>
		<g>
			<path fill="#51656C" d="M358.632,178.832c-0.182-0.413-0.428-0.735-0.738-1.063c-0.9-0.956-2.384,0.284-1.559,1.322
				c0.186,0.187,0.31,0.405,0.369,0.655C357.138,181.022,359.193,180.116,358.632,178.832L358.632,178.832z"/>
		</g>
	</g>
	<g>
		<g>
			<path fill="#51656C" d="M354.976,179.669c2.537,19.036,6.469,38.074,10.591,56.829c3.52,16.012,6.676,35.009,16.092,48.845
				c1.403,2.063,5.029-0.27,3.685-2.382c-9.276-14.58-12.244-34.224-16.024-50.828c-4.01-17.612-6.914-35.455-10.994-53.053
				C357.831,176.946,354.686,177.491,354.976,179.669L354.976,179.669z"/>
		</g>
	</g>
	<g>
		<g>
			<path fill="#51656C" d="M259.048,192.859c0.948,24.406,3.441,47.818,8.481,71.703c2.779,13.167,6.118,41.225,19.464,48.854
				c2.424,1.385,4.956-2.11,2.517-3.597c-6.457-3.938-8.962-15.398-11.044-22.038c-3.101-9.895-5.31-20.088-7.406-30.234
				c-4.456-21.575-6.184-42.891-7.615-64.865C263.285,190.19,258.952,190.366,259.048,192.859L259.048,192.859z"/>
		</g>
	</g>
	<g>
		<g>
			<path fill="#51656C" d="M253.243,194.828c1.629,40.093,7.63,79.261,16.957,118.302c0.651,2.732,4.901,2.027,4.321-0.76
				c-8.149-39.215-14.189-77.782-16.879-117.718C257.473,192.162,253.141,192.335,253.243,194.828L253.243,194.828z"/>
		</g>
	</g>
	<g>
		<g>
			<path fill="#51656C" d="M382.378,281.874c-35.432,14.684-72.098,24.637-110.095,29.672c-3.058,0.405-2.214,5.098,0.829,4.704
				c38.402-4.985,75.55-15.131,111.202-30.3C386.995,284.81,385.057,280.764,382.378,281.874L382.378,281.874z"/>
		</g>
	</g>
	<g>
		<g>
			<path fill="#51656C" d="M344.742,190.556c6.036-1.176,5.081-11.826,4.014-16.185c-0.876-3.572-5.164-6.001-8.646-4.335
				c-4.562,2.181-4.444,7.455-3.336,11.721c0.783,3.016,5.582,2.195,4.792-0.843c-0.394-1.509-1.621-5.819,0.592-6.461
				c1.892-0.551,2.026,1.688,2.17,2.889c0.233,1.911,0.865,8.138-0.915,9.053C341.239,187.516,342.243,191.044,344.742,190.556
				L344.742,190.556z"/>
		</g>
	</g>
	<g>
		<g>
			<path fill="#51656C" d="M277.638,201.12c6.46-1.52,4.755-12.955,3.39-17.562c-1.278-4.316-5.325-6.086-9.387-4.271
				c-4.65,2.079-4.927,7.967-3.666,12.178c0.89,2.969,5.693,2.157,4.792-0.843c-0.678-2.256-1.244-5.054,0.726-6.789
				c2.33-2.055,3.029,1.542,3.281,3.01c0.311,1.818,1.648,8.989-0.466,10.116C274.195,198.086,275.121,201.713,277.638,201.12
				L277.638,201.12z"/>
		</g>
	</g>
	<g>
		<g>
			<path fill="#51656C" d="M295.963,198.24c6.392-1.498,4.854-12.707,3.5-17.304c-1.268-4.305-5.325-5.973-9.344-4.178
				c-4.599,2.057-4.975,7.827-3.732,12.027c0.881,2.974,5.683,2.159,4.792-0.843c-0.667-2.245-1.171-4.932,0.79-6.64
				c2.316-2.019,2.974,1.391,3.221,2.87c0.304,1.829,1.552,8.777-0.556,9.906C292.526,195.21,293.443,198.829,295.963,198.24
				L295.963,198.24z"/>
		</g>
	</g>
	<g>
		<g>
			<path fill="#51656C" d="M313.081,195.053c6.239-1.446,5.067-12.151,3.756-16.722c-1.323-4.61-6.117-5.965-10.02-3.481
				c-3.796,2.415-4.292,7.169-3.118,11.19c0.872,2.977,5.673,2.165,4.792-0.843c-0.65-2.217-1.074-5.012,1.177-6.447
				c2.231-1.421,2.619,1.22,2.848,2.71c0.285,1.853,1.326,8.295-0.764,9.432C309.655,192.035,310.551,195.64,313.081,195.053
				L313.081,195.053z"/>
		</g>
	</g>
	<g>
		<g>
			<path fill="#51656C" d="M330.253,192.655c6.254-1.46,5.05-12.206,3.732-16.786c-1.327-4.61-6.115-5.995-10.03-3.503
				c-3.806,2.426-4.28,7.204-3.101,11.228c0.873,2.977,5.675,2.162,4.792-0.843c-0.651-2.217-1.096-5.043,1.159-6.483
				c2.237-1.426,2.633,1.248,2.864,2.74c0.287,1.853,1.349,8.345-0.745,9.485C326.83,189.636,327.724,193.244,330.253,192.655
				L330.253,192.655z"/>
		</g>
	</g>
	<g>
		<g>
			<path fill="#51656C" d="M259.898,189.881c-2.086,1.187-4.459,2.134-5.888,4.145c-0.91,1.283,0.255,2.969,1.75,2.746
				c2.243-0.333,4.16-1.68,6.082-2.798C264.339,192.52,262.448,188.427,259.898,189.881L259.898,189.881z"/>
		</g>
	</g>
	<g>
		<g>
			<path fill="#51656C" d="M293.617,222.963c8.875,0.361,18.134-2.672,26.972-3.787c9.468-1.195,18.78-2.41,28.109-4.489
				c2.418-0.537,1.785-4.274-0.669-3.801c-18.137,3.5-36.403,5.794-54.519,9.405C292.054,220.58,292.055,222.896,293.617,222.963
				L293.617,222.963z"/>
		</g>
	</g>
	<g>
		<g>
			<path fill="#51656C" d="M297.66,242.062c17.83-0.909,35.728-5.5,53.332-8.378c2.551-0.416,1.84-4.219-0.691-3.922
				c-17.62,2.074-35.945,5.147-53.089,9.749C295.571,239.952,296.009,242.147,297.66,242.062L297.66,242.062z"/>
		</g>
	</g>
	<g>
		<g>
			<path fill="#51656C" d="M302.402,263.752c17.042-2.412,35.064-4.695,51.536-9.824c2.479-0.774,1.918-4.748-0.719-4.081
				c-16.923,4.296-34.407,6.552-51.511,9.967C299.174,260.318,299.85,264.116,302.402,263.752L302.402,263.752z"/>
		</g>
	</g>
	<g>
		<g>
			<path fill="#51656C" d="M308.034,286.079c17.992-2.718,35.417-8.207,53.004-12.734c2.834-0.727,2.092-5.205-0.796-4.511
				c-17.695,4.249-35.012,9.813-52.954,13.01C304.553,282.331,305.296,286.492,308.034,286.079L308.034,286.079z"/>
		</g>
	</g>
	<g display="none">
		<g display="inline">
			<path fill="#51656C" d="M277.059,223.392c1.226,3.247,4.061,5.045,7.118,6.37c1.355,0.587,3.174-0.515,3.207-2.016
				c0.1-4.434,0.182-9.201,1.586-13.448c0.741-2.242-2.476-4.148-3.779-1.98c-2.641,4.393-2.55,10.008-2.564,14.976
				c1.069-0.672,2.138-1.344,3.207-2.016c-2.104-0.862-3.598-1.845-4.763-3.792C279.607,219.035,276.041,220.691,277.059,223.392
				L277.059,223.392z"/>
		</g>
	</g>
	<g display="none">
		<g display="inline">
			<path fill="#51656C" d="M278.532,244.16c1.23,3.25,4.061,5.042,7.121,6.367c1.354,0.587,3.174-0.512,3.207-2.013
				c0.098-4.506,0.132-9.408,1.567-13.723c0.745-2.242-2.48-4.148-3.779-1.98c-2.674,4.459-2.534,10.215-2.545,15.252
				c1.069-0.672,2.139-1.341,3.207-2.013c-2.107-0.865-3.6-1.845-4.766-3.795C281.079,239.803,277.51,241.459,278.532,244.16
				L278.532,244.16z"/>
		</g>
	</g>
	<g display="none">
		<g display="inline">
			<path fill="#51656C" d="M284.232,266.14c1.253,3.252,4.044,5.026,7.119,6.364c1.347,0.584,3.177-0.515,3.203-2.013
				c0.084-4.646-0.19-9.857,1.272-14.324c0.731-2.236-2.496-4.167-3.778-1.98c-2.723,4.643-2.25,10.661-2.245,15.852
				c1.067-0.669,2.136-1.341,3.203-2.013c-2.098-0.865-3.606-1.84-4.762-3.792C286.792,261.778,283.194,263.447,284.232,266.14
				L284.232,266.14z"/>
		</g>
	</g>
	<g display="none">
		<g display="inline">
			<path fill="#51656C" d="M290.232,289.1c1.226,3.25,4.062,5.046,7.119,6.37c1.355,0.587,3.174-0.515,3.208-2.016
				c0.101-4.384,0.241-9.058,1.635-13.255c0.745-2.245-2.47-4.139-3.778-1.98c-2.625,4.335-2.6,9.868-2.615,14.784
				c1.07-0.672,2.14-1.344,3.208-2.016c-2.104-0.862-3.598-1.845-4.764-3.792C292.778,284.744,289.213,286.399,290.232,289.1
				L290.232,289.1z"/>
		</g>
	</g>
</g>
<g id="Layer_4">
	<path fill-rule="evenodd" clip-rule="evenodd" fill="#51656C" d="M279.263,217.488l1.481,7.193c0.429,2.082,0.42,4.166-1.671,5.343
		c-0.798,0.449-1.788,0.639-2.672,0.477c-2.448-0.447-2.93-3.536-1.399-5.235c0.825-0.916,2.125-1.477,3.474-1.478l-2.57-12.484
		l0.698-0.144c1.851,4.158,7.12,5.528,8.008,9.261c0.289,1.215,0.065,2.742-0.894,3.996
		C284.182,220.223,281.601,220.072,279.263,217.488L279.263,217.488z"/>
	<path fill-rule="evenodd" clip-rule="evenodd" fill="#51656C" d="M285.263,238.488l1.481,7.193c0.429,2.082,0.42,4.166-1.671,5.343
		c-0.798,0.449-1.788,0.639-2.672,0.477c-2.448-0.447-2.93-3.536-1.399-5.235c0.825-0.916,2.125-1.477,3.474-1.478l-2.57-12.484
		l0.698-0.144c1.851,4.158,7.12,5.528,8.008,9.261c0.289,1.215,0.065,2.742-0.894,3.996
		C290.182,241.223,287.601,241.072,285.263,238.488L285.263,238.488z"/>
	<path fill-rule="evenodd" clip-rule="evenodd" fill="#51656C" d="M289.263,260.488l1.481,7.193c0.429,2.082,0.42,4.166-1.671,5.343
		c-0.798,0.449-1.788,0.639-2.672,0.477c-2.448-0.447-2.93-3.536-1.399-5.235c0.825-0.916,2.125-1.477,3.474-1.478l-2.57-12.484
		l0.698-0.144c1.851,4.158,7.12,5.528,8.008,9.261c0.289,1.215,0.065,2.742-0.894,3.996
		C294.182,263.223,291.601,263.072,289.263,260.488L289.263,260.488z"/>
	<path fill-rule="evenodd" clip-rule="evenodd" fill="#51656C" d="M295.263,282.488l1.481,7.193c0.429,2.082,0.42,4.166-1.671,5.343
		c-0.798,0.449-1.788,0.639-2.672,0.477c-2.448-0.447-2.93-3.536-1.399-5.235c0.825-0.916,2.125-1.477,3.474-1.478l-2.57-12.484
		l0.698-0.144c1.851,4.158,7.12,5.528,8.008,9.261c0.289,1.215,0.065,2.742-0.894,3.996
		C300.182,285.223,297.601,285.072,295.263,282.488L295.263,282.488z"/>
</g>
</svg>
